<mxfile host="65bd71144e">
    <diagram id="HIP3nbAZw_EuaXWnEj3U" name="Page-1">
        <mxGraphModel dx="810" dy="1072" grid="1" gridSize="10" guides="1" tooltips="1" connect="1" arrows="1" fold="1" page="1" pageScale="1" pageWidth="850" pageHeight="1100" math="0" shadow="0">
            <root>
                <mxCell id="0"/>
                <mxCell id="1" parent="0"/>
                <mxCell id="7" value="http://ics2o.mths.ca" style="swimlane;whiteSpace=wrap;html=1;fillColor=#a0522d;fontColor=#ffffff;strokeColor=#6D1F00;" parent="1" vertex="1">
                    <mxGeometry x="40" y="40" width="760" height="480" as="geometry"/>
                </mxCell>
                <mxCell id="8" value="&lt;font style=&quot;font-size: 36px;&quot;&gt;xx Cookies&lt;/font&gt;" style="text;html=1;align=center;verticalAlign=middle;resizable=0;points=[];autosize=1;strokeColor=none;fillColor=none;" vertex="1" parent="7">
                    <mxGeometry x="330" y="70" width="200" height="60" as="geometry"/>
                </mxCell>
                <mxCell id="9" value="" style="shape=image;verticalLabelPosition=bottom;labelBackgroundColor=default;verticalAlign=top;aspect=fixed;imageAspect=0;image=data:image/png,iVBORw0KGgoAAAANSUhEUgAAAWgAAAFoCAYAAAB65WHVAAAAAXNSR0IArs4c6QAAIABJREFUeAHsvQd4XNWZPs7GYNZtN5v8sgngB0LKZjfZ5J/d7G42WbCtvpJsA7ZKpo/aFMl26HUJtlXdCxh3S1PvzJiEhJCQTiCEQDC4SlbvGlWT3y91Kfb7f95z5lqyPTIja2RL1uV5LjMeTbn3O+e89zvf937vd8012n+aBTQLaBbQLKBZQLOAZgHNApoFNAtoFtAsoFlAs4BmAc0CmgU0C2gW0CygWUCzgGYBzQKaBTQLaBbQLKBZQLOAZgHNApoFNAtoFtAsoFlAs4BmAc0CmgU0C2gW0CygWUCzgGYBzQKaBTQLaBbQLKBZQLOAZgHNApoFNAtoFtAsoFlAs4BmAc0CmgU0C2gW0CygWUCzgGYBzQKaBTQLaBbQLKBZQLOAZgHNApoFNAtoFtAsoFng8lkAwF+9uHr1tW3Vq/+6dkfx3Pr9D857Zf+D817zrvwbHod22/422sH3vLijeC4/c2i3bXbT9pXX83vOP/PQ6uyZodXZc0NV2X9bvdr64f0PLp23e/WS2aFQ9ozz36v9W7OAZgHNAle9BQiUBEwCbJ2v5JaT3hVfPFFd9O/1Hvt/NyjFRS3+wrubfAUPNXqsjzd78za2ePP2t/vzD7YF819oCeT/tFHJ/1lToOAXTUrBi02+/Jda/QXnHYW/bPEV/KLVV/jTdn/hCx1K4XdbFZun2WfbdqTa9vAza5c7Nqz871UVJWlr1jpSlVJH6s/XOP77lVJHxq/X2DNfXutc/KO1zoydZSUZq9YUL01Y/0D2JzTAvuqnpXaBmgWmjwWAa/6KIHzc/82PH65e9dljNd9ccNy3ylSvOB9q9RXua/dZnm33mX7e6bfWdin5PZ1+y2BXwPr77oD1/XDAdKY3YESvYkCvokdfQI/+gB69Qd0FR19ABx69Qf7dcPYIB8zoU4wYCugwEDSixWvFy9ty4H38jjNbVqa8X+FMPlPqSEaZIwnl4khFuTMN5Q4e6Si3p6PUnn56jT3j7TWOzNdLnUvXV6266zb3/aY502cUtSvVLKBZYMpbgN7lMZ/z72o9xZ+p89hTaj2FeY2Kc0ODzx5oUYpeb1HsrW2KY6g9YH+3M1B0pjtgBQFYBV6Cb3wOA/oDPPQYUHQYDOjR4zPi9SeXwf1wMjY4F6HcnoQKR0rkSEWF42JHMsrtiShzpGKtI+PMGvt/95ba0579duU3Ko64HPl1bntGbU3JFw75bf8nWvhkyg+sdgGaBTQLTC0L0DNmXPekq+QfTnqLUxt9xd9s8RXtbPMXvtjhszZ2Kbr/16Po3qM32xcBy8FALoYCWRgK5GAgoBMg2hc3gJagzO8dVHIxwIPPAzo0HcjFs0+kYpNzAUrtKSh1ZqLCmRYjOBO4CeYJKLcnoNyRLA6C+1Orks78eKPuvUaf84/t/qK2Zl/hK83+gr31StFDJ90FS2q99s8zLo7Vqz80tUZXO1vNApoFppQFCDIEm7cOrPx8rd+R0+QvqGj25f2gQ8lv6grk/75HsbxPsB1UdBii16qYMKgYQFAeCGRhILgcfaEshEM56Avq0B/UYSCQGwFTgvX4vGd5E+Dvy++kB90TtOKt3UYceCAR5baFWOtIR5kjAxX2VFTY6T1fzGse/hvDHWWOdFTYeaSi0p6CdfZk8XxTcQKeK81Eq8eM/iDDMNnoVXJP9yjGP7Yrha3NSvHPGrzFGxsVh/W42/5vbx1Y+THNy55SU187Wc0Ck9MCbdXWvz5eY/t0ncd5JwG5wWf5aZM/v71Nsfy5J0AwykFvwIDegAnhIA8zeoJm8bxPeM5G8be+gAV9ASt6ghZ0HbSgJ2gSoY1+4e0SqMcHzgR3AjQPgn6/okd3KB+H95qx6z7Gl3mko8yZIUC5yp6EShHeGAbhi4N1OsodGSi3Z0Ri09L7LnUmo9SRiPX22/DtJzLQ5snDkGLA2z6dOHijYvgmzBCLon+nx2/pbfcXvNqkrHz6uH+Fsc7t+GfhYeOav5qcM0A7K80CmgUmjQXoJTcdWPmxk57ir9f6HKua/EXBNr+5vlsx/qlPMaFfMUZiu/R4deiLJOTUEIb0gqVn3B9kGIMHPWjp1dK7ZsiBcWF6uAR2Hud+/tLAWn4HAVqHcNCKEzUFqL5/EapsC1HpSEWVPRmVIjxBb1gC7cVB+XzwTkGZMxllziSURo4K8X3pImRSZV+E75dlopPXFKJtctDPmwVvPgqvWYZd+hSCtRld/rz/7fZZOzp9eT9qCti/ddLtSKvfv+JGzbueNMtBOxHNAlfeAkzs1XnuvqHWuyK9PvDN9e2Bole6Fctgt9/yPr1ihiME0CpMuBEAZfJNeK3BkWDK90lwlo964RkPvyaBWv5bhjQIqvEAZ54LgZ43EIJ/q68AwdV3YB3BmaEIR2rEY2ZYQzI0xgbOBGs1oZiCcoc8CPj8HhE2cSRjm/M2/Gp7LroPWtDPsI6Sgz5xEzJKz17dKRCwha2kHXoDxjM9fvP/a/Plv1Xvcz59wlfyjeM1Kz9dG8qeeeVniHYGmgU0C1xWC6xevfpD9NYafcXLmv2OrS3+ktfbFfv/7Q7knyGgMOQwGCQYjwTgyf2c8W9x0wgY8Zsnc7DZuQBVBGbGm2OMNY/1fQyV0IsmQJc50lBpW4h99yej3m3FQFCPISUXPK/eIAGaHrUEZOFVR2zLGxSpgXKXoRPedYe/8M8tPlttk69o30nFqT9c7fik5llf1iWi/ZhmgctrAcG62HfPR8i4aPIUVLV6ra93+q1/DAfo7ZkEmJzyLceQkj3uhN1IALpcz3tFyEWHDq8Z/keSUWlLRKU9HZUOxosnBqSlBy0BujQC0lWORPxs4zL0Bq0irCEAWtw8IuGO8256BO9w0CiSqW/7luNt3zKcUrIxpDA0YkKnkvfnRr/t6Elf8bYT7uIlvLFqxTKXd+1ov6ZZYMIs8GronlkNPsd/1HsKH2hUHD9rDxS+3RPQnWGMlJ6bTObRO1a5w8MhjMsFrvH5HRapGPDWrlxsLV4gvNpKewaqJtCDpvfM0EeZk3HoDJGELLOnwPVQMtq8+WIHIjzkiHcf/TrVsFCuiM/L2LwZ/UoeBn0WDARz0RvKRk/QgG7F/Id2v/lQoy+/qtZlu40VmBM2cbQv1iygWWBiLEBvmXHlen9JTouvyNvtt/T0KsbTZBT0BXMRDukRDsn4r6jU4zY8ID25eMWEo4PRxIZJekNW/KTqDuE9r3UuFfHmqkiceCK86HJHKuQxHJ8mYG9fkYCje82icpExfNpW3gCjXb8EaNpLettm9AYs6A1a0MsqSBbbBLMwGKBnvVxUUHYF9Wc6/caBFn/R8yeV4qKj7sJbNa96YtaS9q2aBeJmAXrLtdVFX67zOR9qVopf7VLy/9TvI0CY0R8wijDGkKIyK0YUdIiijlwMCObBhXHSKwG2Y/9NA7oC+Qg+zvLsVKxxLhEFJZWiyGRiQhyyHJzfLRkiKlNkvSMRv9qWi4EQw0e5goo4OkCrFEGZVCWPmyEO8sbpOYtdDhOg4iBg56E/YJEhkIAeXUHTO80+y9E6r6OsweO8vUnzquO2nrQv0iwQFwuQS0uaVqO/5ECr4ujoUazvS4DLFSwM6RWPDF2MBsKjvR7N85tcrzGhybBC9UMZKLWnYU1xGsqdajn3xAB0NK9c9ahfWJ8FevSxAPT5NyMyPGRCUR2PkeEn+Xw4gUuutQHhQP7pdn/hQJNS8t3j/lU5LIjhTiouE0z7Es0CmgXGboGjbsffNypOfVug6LttivlUZ6gA4WCeoJqxnFqAQ3AkME8uUD0fmMbzb4Jai8eCAw+moYweNAFaeLaXD5wJ2MKrtifh+Yo7IjsX1YOeONuT+jikWDCgWNATyEdrwP6HJr/jpTqf456j7hW3aqXmY19b2ic0C1ySBegVHXE5bjrhLyls9BX+siug/xPBiWXVDGOwEIRMDIYyCHgXj39OHGiMB2wv5bOksbV7Tah5MAXlNuptEJhTJpRmF82D5muV9kT8eN0d6Bf0OhWgJ/5GyXF/W8nCKXFzNqDDn/9ug8fxVr3X9lhtTdEXNKreJS057UOaBT7YAgTmt/aV3FLnL7m7xZ/3WkfA+L+95CsL7Qsj+ulB8d+BHEHZ4uv0rGTscuLB4VJANZ6fGQhkoztghv+xDFTYyKxg9aA8RgPSiXp9vSMBL29ZHuGSy3J4lacdz2tWv4uJyJ6D2egPZokbs9RCMWLIZ8Kgz4Bun/79Bp+l+Zjbse7oPsc/awnFD15v2js0C8RkAcHI8JXc0uS339vuL3yjSyl4V4gNCQEisgOoc2ES2X0yNKQusvSm6VEPiPLsq8dTVkHp/EcKMvUEjXiuMgsVdpZkXymATsHmkiQc2mUSMqf07KVeiSykOf+84/FvMj2okc3vkuMttVH4OndSDHeFFWph55+uc+U31LkLyo67nF86tNt2XUyTUHuTZgHNAhdagEUJzb6CFW2+otd7/dZ3WZkm1OEIuoo5IkrPRCCLIKQwjyrvKT22i9G7ri7QFpV6QQN+s8OADc5EoVzHMm+11HuivGV+r0wMRgpi7EnYe38yGtySBy1zATKRFw8wjv4dcqdEcFZvyOGQDj2hXIQJ3EJZkIUzRoR92ejwfON0s8vafNJVWH6sesU/ajHqC9ee9opmgVEtQOH3Wl+RtdVb8HKvz/IuwxdSqIhALME4+kK9ukB3rNfIWHyr24T9D6RgjZ3AmSIEkiYOnFUtDiljygThOnsiflixFJ3BAuHRSlojAXriPOhY7MRwF48+Kuz5ctHtzkWLy3y6zm2vPeFb+RDLyTXWx6hLUvuDZoFrrqnfnz+v0Wdf1uwvfKFLMf+J4YoBxSQOyaPlNlYD6GiAxGQoQbAvYMZLm5aJrillzkzRtmqiAFqq40mxJFYTskvLU3cn4fh+Kb3KXQ1V7HheovXWCKGpaNdwuV4LKyb0+Mzo8ejR5TGi3Zv/XpM7/83j7iLHWwfyPqatRc0CmgVGWICxQEp8NvmdnrDf9H9VryssihNGhik0gB4NxKSHSqEnA9rdRvgfSRKi/OURDeiJAWl2VyFAE5yTscF+G15Yz7JsGd6QUqtSaW8yATR50+zTyCKmPk8Oety56HLr0VFj+EuTu/CF4zXOTHZAHzFFtaeaBaafBbilZP++Bq+zottn6qSgfW+Q1WIylijjiSooq+ENzYOOBtKycCOiDBfU4/juHOy6m4JJsnNKpaDdxZ8TLRoBONJQZbsdwceS0exhpR/Hjwk7GXKSnv3kYdIIXW5RPapHr2JEp9eIdo8RXW4dutwGtHjzTtW7i/Yfd6/4N43xMf1wSbvia665hkI3Rz3F5ma/41C333p6MLKgSZ2TGXmpnyxDGiPBWQPoaAA9yPLoQC66Q0Yplq8Y8Or2HGxfNVInI74ArbbCYmij5qFUnDxgFqwJctFlSEqCsvSkOW6TI0fAm5laiSi8adFUNxedHqOITYddy9HhNpxp8BS21Hsdj721f8WN2qLVLDAtLECP5Ki75KuNniJ/l8/ye1Kw5CKhgpnkMZPTS2AmTWq45JeLXj0mx0KfLIDD8yAI0j6U7pSxe2qQWPDK9lw8tYpdvBNBSdByRzoooCSlQqV3zV6DbGlVYeeh9h7kY6Y4KFu6jr0II6L9w41jU0VS0PNIGk7st6A/aIa4UUQ6xqj6G0xe8phM9lLPTcTJI11v+hQDuj06AdLdLnrTRrS7Le80uApeOuZ2Zmthj2kBUdP3IuuVFTeedNsfafI5WroVs+hwzQXC0AZBenIt4KvjJtAbNOHNndmoeSABLCCRAkeZqLTzSEelPS0CvNTtYK9Cgjcf1edSUpTALsGbdLo00TB2c3EivlN6J066CsC+i5MPhMc6hoxN60VMmgDd7dKjy6VHm8eMBo/td3Uex9O1NSVf0Nge0xfDrsorZxKwzuVM7vDl/7TPZ3yHimXk7coFzVZNVD3TAHoiblD0rAeDerS69PhJ5WLsWJWAcsalbRmgXnSFnZodSShzJoqD/QbZd1AeiSgXr6eJvoPldsaaE7DZmYDqhzPxqyf1aA3kIxzk+EkvWSYrp+5YMsna6xsGaZE8dBvQ49ExBHKm3l107IhnRZ6mmndVQtX0u6gGl+OmJp9tdYe/oIugPKRkoT+oQzhkFB2wmQg8xfjzJIlPTgRIXsnvZF9FFu8wLswtfN0+PX5YvgR77kvBRudCVNoWoczO7tzpWOvMxBoHjwzx71JHKkrtKUK+lAUvW0sS4H0kGS9vvRNNPiN6DhrQF6Q0qNogl9KhlAadqgA9HIaRIE0vmqGOXHR7ctDp0aPVY0GT2/KHJneB+1j1ii9q3vT0w7Sr4orpNR+vLklp9uX9vFfJfY/ATEGjcNCM7pAZXQfNIl5KYKZ2ggbQY92Ox/b+npAZPITwvUKdEsamTah35+E3O3T4YcUdUB5fjL0PZOCpu9OwbWUytq1IwlOrkgQLpPrBFIS+lYmfbVyOw3vNaPVZRcODvuAyodk8SIA+uxsiMF/ZgpTx3QzVZDRvZnr0+eg5k4KXg3aPQYAzKYxhVxa6XLln6j1Fx465Hdaj7vvnXBWLVruI6WEByoA2+fKfaPPl94QDVhnKCOaiJ6iW/OYKYZuBYLYADul1xQY441uA0/A3qE/CriZB3hxNIEumnw1dWVkndEos6FasAnzqa8yiyOTEPiNOHjCguUaPDo9R6FiwNRg940EqBnLX4+WjfE0meVW++lT1njk36EGPYAkpBvQqBnR4I160Oxvd5Eu7TOh0G4Rn3eDJ//0Jj3330f3Oz02P1a1d5ZS1ADUN6rzO/2z2FzzfqRjfkWAqvSouYjY2VWOVknUgqVdagnDibhwyzi91SiSQSgDljmUkV1mMVZAhC6OQCe1nV3PRbVsCl6TKyZ3OgKKCuwrGfFSfT9y1XJmbswTpsCcXPa6cSMjDhA63hVQ8kVDsdJvPnPQ4XzssC1w0AaYpi2BX8YmTgnTM48xr9hc0UDlMC1lcbUA1na/HgH6G5zx6AdBkd3S7jOh2mdFXo0NvTS7aPRbUewp6j7kKH2c3l6t4qWuXNtUscLLa8ck6n31ri7/wd2HS5yKxzivj8UxnINGufSLmnHQ2VJCWiUMmD3tIwxOhDhnu6PHkMFT0zoka2zOHq4u/rCUQpxqSXWXnywlYX+P4r2bF+WKHYnmfgumM4ZF2Rf7tRCwW7Ts1EL78c0CG5vi7ZMIIT9qdjXZvFlq9RjR781jQgrDLiIED9KyNaHTnHY8Ut2ghj6sM96bE5bCD9km/09LmL6gXbaXY0YRJwFAWwkEregNsGKqBiWaDq2EODLM7RKxdMaDHy7CGZHe0eRiPtqLbZUG4xoxeVw66vLlo8BT1H6+xP1K7756PTIlFrZ3k1WGBVv83P97kL6no9FvfVrPeQkMjQN1mC2QhikwAagB1NQDUdL+GYXaHGu7o85nQwyShCHUwgUg6ng6tlC/1WNHDGLU7h5zpvxx32TxHXEX/cHWsfu0qJrUF2IGiyV8cDAcK3iW3lroPwyA8Mps/8vXpvsC16x+eI1eLLQySJ80iFlEWLkvDO916QcHjIwGbj21u85k6l+1Xx6tXLNK6t0xqeJu6J8d48zG3c+FJn/OVjkD+GUG7EjxmzVO++sDnagHRib0O0aHFpz8rrqRqd0iQJlAPH4xR13uKmo/4Sky1odUzpy4SaGc+6SzACVXnLcxt8Rc1dAetoi/gKcHU4AKYypVjE7uANeCeHvY9tyx8GJRHAnSPOxsdbh0a3IWDdW7bg5qWx6SDual5QkwG1nmdd3f7LP0EY+o2D/HwGTHgs0aEjqbHQtQAVxvn4TkwMi7NcIcUWFLDGiPBmc/bvKxCzEV/TS463bo/1rkLNmt86amJiZPmrGv3FXykwVu0pt1v+Z2a+GPZMMt+qVpGTQepXqYt3OGFq9liethCBWgZ4lNV8KgnfT44S4Bm2Xwuwu5ssBdiozv/nVp3oY/NaifNgtdOZOpYoH7/ihtbfYW7uxXdX3qDy9AbykVvMBe9ISrR6REOys4n5yYJNXCS4MSSaEnNon3kTU0mTckCEMnVIB/VpCrDRGrTV9l9mm2ZtGrMyT6fOKbqQUVGA8JeFq0wQage/Lc8SMtr8+rQ5rGi021Cp+sbpxuq835w3OX80tRBBu1Mr7gFjrpX3Nrgdyo9ium9t5VlQq0sLISOJvuCmTznRw0MqYMRAWTR9UQnKIgEbbb14iN1LSg+1K9wRyIPvqZJsE6esRzTjoACSx6DEPuXJeGk4rHfoeECz5rhkHaXAfUe22+ZgNcqD6849E3+EzjpKvmHVl/ec12K4fRAcDneVnJwymfCoE9LBsa+UNk01YwBxSRi9ad8BohD0YkEK72uvkibJZbFq13Mh4Gb4HS1ig9NUeCNueiKJeHG83Q7pFd9fuiDEqYt9Lg9OrS4808ecznTNZCe/Bh5xc6wtrroyw2+op/0+o1nBgPL0RfIka2MCDaBnMh27mpfYOO/PskPJ0jrMKTk4pSQ6aQmswXdATO6FCu6Anmi4lKyYHToVxgSob0ZStKL+L4G0uMfi9hvqvH8rQhIu1VxpehxaUqWdrjNstjFLeLSTcddjrs0rvQVg8DJ+8O17pKvNvnzf91N8XUhJyn1g3uC+egJmdBzMOu8opR4Tuir67ukJ6wCrh6dihVv7jbihcqleOZbqQg8loLvrFmMFzdn43h1HjqDRQgHzGf1iCXAT+XOJFfXeF4ayMtCFtGRpYZVhhfS7/hauIba0laEXXr0ubPR6CroOOp2fAOh7BmTFy20M7usFmD8q1nJeyscyMXbBGdym4PZGBRgTZF3E3pC7LItE12XNmGn26KlDc2o22/Ad1ZnYktJEirsiai0JaDCnoIqewo2OhKw+55E/HT9XWjxFaAvZMEA+zUyQahoAD3155kBvV61bdaFAC1DHvx7LrrdOnS4jej0WNDszu864l1hfHH16msvKxBoPzb5LHDS7VzYouQf6VN0OOXTi4RVX5BgKgGavGd23qBXN/UXTPyvQdqH8WLJxJCPevQFzTi824gD96dgnS0ZZY70EUcGyh0ZqHSkodKehI2O23HwiUwqoGEgYBJtqdiaSrN3/Mfr8tpUMnLCHh26RDk4k4fyYLdwetAdHh263dmiLJya0l1uo9D4aHYXhI97S/I1kJ58mHnZzuh4tWNRg6/wcHcoV8ZKfYyTSnbB5Z3IU3chyq4kKl1OJvbYlaR2vx7V9y9ClS0J5fbFKHekocKRggpH6gVHqSMF6+y347tr0tHpy8Mgu5ko2VrMf6o7BYq8ybK/YVgIKxnR4yKrY5jlcX7ikP8miHe5zajz5Pce9dosL76oedKXDRQnyw8RnFuU/OPdwRz0hO4UHOd+xRTh72reWyw3KO4q2OtPhn5yhe3If+70mfHMExnYYL8dFfY0lDsyI6CcfAE4E7DXOtJQ5kjGVuft+NXWbPQE6Ukzhq2NQyzjMNnfIzU7qBNN8B15XEi9E4DtMqPTZRZ60w0ea88xt1OvJQ4nC3JehvM4VrPqK81K4W8pPk6WAQtQmAhkVeBgICsCDlPXq71cC5YAHRZ9/Mh5lt2t+4NGHHo6B5tKElDhGA5tSO85OkCXOtOx1pmBcnsS9j+QLEMdIsykAfTlGsuJ/h3mdXq9LAeXqnf0ksmPjuZBd3j06PTo0V+jQ7hGh3qXtfOtGsdyDaQvAzhe6Z84Vm37Yr2n6JdhxYJTXhNOeanhrJZss5BCq2CLdbFKD5ogmisSqqwM7Azk47trJNgyrCEPhjUY3oge4hBA7kxHqSMDGxyL8OvtOegTHWk0gI51LKbC+1gZGo4kDS8G0J2eHHR5ctBbbUUf+x16s1DnLmqurXEu1XjSVxpBJ/D3az3FnznpLfwRqXRD3lxRfMLtObfT9JwFOAsBpHgWpRBk1INeuSHSNVqyQ0T1XNAkAYkdpUXccSoBE4tPWGySi/6gBY2eIuy/LwHldgnIlQ56zTxGA+cUrLcvBN9X6lyMclsSnl2Tjh6FtDttF3P12ECuASmqJL3o0TzoTrcuoiVNCh4PHbo8RjS4C+qPV5ekaCA9gSB5pb6a5dttSsF3WYTCxBYnvtCIiIAnQVpoP7DsOA5VbKTm9QYMGAhmYTDAcnGGUqxodufhjR06/HjdnXh2zRJ8e/ViPFe2FD/ftAxH9+rR5ZP0sl6+P1JtJ841YJAFHMHJRPeTNzcyNwR3PGjE4b1WbF9BSp2aDBwNmNW/p6LSkSQAupxMD3sK3A8lo9PLfIAG0FcXQMu8Qp+PzA0p9B8txDHytQ5RIm4QLBCyPho9BbVHDzgSrxSOaL87ARag8FG9vzjI8m0RY1boxWbLYwJBQOpR5IKshma3Gb/YcCcOPJCEzc4FqLIvQoWdnGB5VDoSsW1FIkKPp+PNp3PB7uD06FUVPVEeHRzWsJgcC1eHgWCOrPqjpkbQgNd36LDRkRg1GRiNwSFfSxEAXeFIw1pbCvbesxDtbqMG0BM4Ny///KEHLQGaSUPJj6b06Gj86Atf73Cb0Oo2o95V8Eaty/EvEwAV2ldebgsc8zn/rtlXuLtHMb43ELhLlG+Hg+Ta5ohjoibqkEIedS5YiXh4jxneR1Kx0X47yh0pZ/nATI7xKBOx2gyUOUhHS8e2kkV4oTwTHW4LBoUGNUMwMgnHMmipAjcZvEu56LhboLc7GNLhtSezscmxcIwAnXwWoOlB77l7IVrdmhbHRM3NK/O95wI0d13kR48FoDtZFi48ah3qXEU/Pl5j+/TlxhPt9+JoAYrtN/id3+rym//8trIcb/uktgZBk5VqLLKYqMlKcO4LWvDbnSbsvDsRVbZkVNpJJ+ORigon47JJ4qh0JGCDfYGI0zIOy6KOKsdCHPxWBlrceegTxRtZGKTXL8Ivaqx64s4/NrvIuKIEaB0GQ9l44+kcsUMYPeY8HNqBMDOOAAAgAElEQVQY9qglQKsJxX33JaDdo3nQsY3BlZ4Dsf7+MEDL6zKiTzGiyzMK1S6KZx125SLsMqDDQ0/aeKbelR+s89huiCNkaF91uSzACqQGn2NFeyD/d6TRMQZMVTqqrJFSJ0BFxJtjnWBje19v0ISje43YfY9MmJU5WD2XgnInY7JJAoDXMczhSEK5IxlVjsRILDYV5Y5UlDlTsc6xEM+uWYxWXx76gzKRyVhvf4Bx6rGdz8S8fyRA52IwmCXi6NtXkmL3wbHn8wGaIY5Seyo8j6ahy0eBqslwjdo5xGfuXAjQ9KJ7fNGpdtE8a3YJF7KlLosQ/m/1GN+r9zq21e/Pn3e5cEX7nThZoM7luKvLX9DDUEZvKEsI7FMylKp04VBWRFsjnotPbsmFBnJQjxZfPgKPpYlYc5kjU3jF9JTLnckCqJkYk/SyNKx1ZmKtc4ko6FhnT8E6AdbJqLAnYbPjdry4ZTnCIbMMcwivf3J50OSP87oHgzlo9uZh/4OpItlHAK50ML58cbAmg0OwPezp4pqfq1iGcMA6SW5C8Zwj0/m7ogN0r2JC9wgvOpqokgrWrV56z0b0VRuEuFKbW49Wt+VPDd7Ch5u2r7w+TtChfc1EW+C4p/jrrX77yX6RaGOogeXb6uKQXt/wv9XXL+1RCvuwmo76x9TyyEZv0Iifb9VhvZNsBgJtGioE+LDcmcfwNp/essoXHv4bAS1FetL2JOy+PxUnXfkRj5Isjks71/h4QiN/+9xFJwSOFKuIn5fzuh2pQhSpyq7GmKMDtQBoe6oIAW0tXog3np5Mu4SR16s9j+8cYkm/CX1eqb/BKkNS78iRVkF55GNHJOxxPoi3uS1v13qceRr9bqKRNQ7ff+yA81P1vpU/6w7kY8hHXVoDpPjRxCwuAjQFyhknlkpsOWj3mFDzUJqojBPeIylnAqDTzwHnkUA96nNnKtY7FuLFTdSnZmhjMgI0s/MUlTJhwGfG8V06bF+xUHjDpXYmPzOFh8wwTrTrZPiHR6UtEd5H09HmKxCCSWpHlviCwsTMA+0cL9Wu7KZjGtGFRYopjQTmiz83oNWTR8H/1np3oUa/iwOGTthXsMlrk7/Y06EUnKYaGrt4iFZKomz4UifQxT+nigXJbX4O+oMGvLkzF1uLF6CSnrI9BZXCO6SHOOw5RwOqaK/RwyYVz/dIMjp91kgbKXquFz+vy/d3gnMEoEWow4geetEVi7HBdhvWOhZjrWMJKu3JqCKlcMTuQX1eKkJAadhasgivPc2iHSuGfGStTKbrnCz2vtrOg7slI/p89KKlwD+V7i4Oyuf+nQ5Rt1uPZlfeq/X7nZ+bMIDRvvjSLXBot+26k/7ihzsV61/IzT0VyBbtlsTgByduoTORJeRIg2yayfCGCT9ZfxfW28hzppwmD4KzyvWNHaSl9y2ZH0+tWoS6A2pycOKuZ+zArgI0z0kepAG2eMwIPJYMJkLLGeJhHDoS9lCBmTcv+TxZMD9ot65Avrj5sDJRA+irDYxHux4J0r1ees9SmnQsAN3jYvJQj06X/kyju8B30lXy0UtHEu2TE2KBWrczu1WxDoRDOvQHl4lww6AoFzaiLyg9vLGDz2gTauTrEQ+ATJHgMtHSKfjEYlTYGHtm0isC0KJajolBFZQ+GKgJ6hUOCgktwUbnIryxg9chW0lNzLWMvK5Yn6sAPfKROwk9GmrMCP1PKjY6FoqkISmGZ8E5YgfGqreVLMSP190hOq/0B3ME40ZyvWnbWM9De9/UtpUBFC8Lsxu4a2z8aDafZcVhlzsXbW7zOyfdRd+qDWXPnBCg0b507BY46XN+pcWff5R0ul52PgmS70zPlnoOXOQTCdAsGdfLDizBZegMWOF5jJoSDE0wOagCtJoo+2BgVkFMBeg1zqVY51iEV7ZlCR2PySVmP+w5qx600DahBxw0o9Wbj59tzMKe+1OwsThBsFoY6lhvXyQKctyPZuK1p3SiRyEBZiCiJkiNkslTkKOB//ngz7EJC+0Ydr/hWLPKlZ2HrAiHLMIpOqtweNGb7MjdINtk6UUZeCc9aYL12SN641l62uTME5ypgEfB/xZ3/uAJT7FOSxqOHUvj/ona6uJPNPlt3wszgTahnnL0RUqxpd6QTtwU2Gi2w2eF65HMiFhQ7GCsgvLIR0E9Y/kzAdq+CC9tulPccAiA5y+YyfRvxuWHRF9H3ryM6A7modGVh9eeysVPNmThh+uy8fPNOTi824B2Nkk4KxIV3caT6dq0c1HHiI6PCQMEZZ8RR3Zm4afr78QPq+7Cr7bloLEm0vhCyRF5IOkoqZ+N/qjy3sOeHNkGS3RhGRZWGo3dQZAmQLNtFgG6zZOPeq/t5Inq4n+PO+BoXxi7Bch9bPAXVXQplvcGfJYIDW3kHTn6RIjnIhMATRqfKIbJQafPIpgI5DCPBNtLeT4M0EtEpeGrW+8SwDzASX9Rr2Tir/viv8/FS+ohBf116Ano0RMwoy9kRm/ILAT5w8E8Ga4JMhk4uW84F7/WK23rK/P71Ih5O6BHU7UZ3169BJtXMBxH3n8SNtsXYN99yXhpmwEdShEGfWOs2mUHFrbCihmg6V1TUEnEodHmNokel7Xuou8edTv+PnZE0d4ZVwuc8Bfr2pTCISrGnVJyMBBRgrvcC4rbPWpkEGh6glZ8+4kMKYYUhbEwFqBWAZo0tS3OBXjz6WwhSDTRIZvx2k8CM8FZAnS/SNJyG6wq+zHOzBspgVlrbTVee1+Jz3PONx7Qw/OQLLhaQ4kC52JUOkglpSphOjY5E/CLjVnoI/0y0v4qlnOVHVgo6K+K+1+cH03PuluI/0v+NAX/2z16NHks79Z57aW1odVaPDquyBvDl1HNqkmxHe9lgQiFhILLIJOClz+xJAGaCnmUFLXgZxvuxHqhrTG+EIeaUGRy7elVC1FfLSv2ZKz3ynhOsSwwvme4OIiNQ+XNiwqCzA/w/MUiZKlv0CTaZsX6vdr7rvy4czzbfVYEmAy3L8AaZxpKKU1gXyQOyhTIDjnJ2FHyNby5kw0YxqLvHaHHeoZ7F16sgEVto9XJruARMSXKmVLno8lnGTjuctwVA6Rob4mXBQ5X3/3hZsUZ6FEsonKPbZeYoBi6AltlGTczggp59BQ5EQ/tMmJLMXU2xg/QotLQniLCJu3U5KAw/qTnB0udaKERrbDCUiZrGas/q4sipFSlMh9vcBrwXnngjWUM+thxKGjAb7Ytx0YnE9+seGXnHLWsX2rLUJWRXdtJN3U/lok271hK93lTj1QYRnoYXhygs0GdDgnOTBhK75tsEJaGn/QU/faoxo+OF/xe/HtCoewZDf78e7sVy59ZhMJ4LEurewOMQV8p8GK8lSBDip8R7V4zXA+zklByf0Ups9CbGJ1iJwpSBPVMsj34mXJnKtjxmjKlv9y0HP2BvIjsKMMCk3lBE6CZ3adNqBsiGRmyRF3+bUgANN8zma9DOzfOM44b57eaK2jz5cH7aBoqbSmockiuP9lK5UIQLMJ5F5RKyWBaX5yC157m2uB3SIYVHRoWd0WfxxKgWWEYFl607AQ+WgELE4SCxSFKwRnmkAL/nXzdpUObx3ymwWPfp4kqXRxb4/LXEzUr/qtVKWyXi31yLiB6GC9tzRH8X4oi0cNgAkWKBo0O0tLj5t/le0qdLFJJwoH7F6GphgL+bGorecLRJ/bktId2rlN7XGTndgMGmecJGPHmHgs2rxiDYqE9Gd9ZmyESxXSoSEsVipLBi+2cIjd2UWEoQx2jAfRoRS0dbvKpZRy7xVv0h+O+FQVxASHtS6JbgBnZVl/hc9TZmJTbYnqDih59ih4tnjwoj6agyr4Qa52LUerMjIQ8RgNoqtylnhXzF0Ud9lRsdi7EL7dkIRySTQaGvdKpveg10J4648e1RoeIAN0fNOEXm7JErDnmEJ49GfvvTxRrQnL4cxEORRLIo4brCN5yB9YrvGjJix4NjKO9LsWVdGClITWk63zOE7XVxV+Oji7aq+OywOrVqz/U4LPdE1b076hx38m8yKlud2yvAXvuXST0ninCP9yn7/zYNMvApafNztYEZ7bA2mi/Dd9bq+pBk8GRLeO5ilryPXUW+WQeK+3cLj6PGIrojSR6mWN5di2Tg1KtMDaQTsGTKxfh6D6r6BDEUAnpl30XDUlKuuxIRsfYKwxluIPx6R53Flo9FtR57R4t1DEuKI7+4RM1jv9q8xe0MIYl6VkX2x5dfMJdjgXJm0g4YMabu/TYd88CrLNRPGlkqfNIkJY6HQyFCHC2J2KL/Wv47uo0tHis6GUGXGhTMMYuvYrLcQ3ab1z5eTQZxkAAtKCR5qBbMcP7aIag0cUGzpznKdjoXIjXdrBvpVR9ZJhj9DClSsHkfOcYGBD2qp2+zxVKiuY58zVWIJJHzT6GZHeEXVnocueg0Z33+6MumyU6ymivXpIFqFLX7M9/tkfoNFDtjFuuy1uQMtaFIs+PXoIFx/YY4XuEsqFJkQpDNczBxIoK2jLEwQKX7SUL8ELlHWhh5psFMGzIKlp0EZx53ZP72sdqK+39sdwIIolXQVE8d/zPBbr4Oy5nATrIQiwzah5OBxUIYwfoVNFB6FfbyQAxgUJYsisQd4LRzpfXx/fw4HVTp0OP7jH0MKQ+R48rF+1uM9o91ginOgedLgOa3dZjR2pKvnBJYKR96FwLsJ6+QXGW9PoNf2bj1J6AVWR/ZZgjlol9pd6jTjJmry1iory0YSn2P0BNikRRcVVuS0aZnUcS1jkSsH1lIgLfWow3dhrQFcyPlEBLL4LJGTmZ+b3nLlAN4K7UGMfzdwlUFLDnzZjfS+qoQYQWKDw1ENRjMKjHqWAu3g6y27uqdS6LpOScoONCSqMaApNzZ7zzQzYqZgw6F11eM2oeuhSATsCvnuQ1mDHko6Y5mT2jsTii25VedI9I+knFO8l/Hl2jgyBNRkeHm9Q76VWT7dHuMaDeXbjz0G7b7HPRRvvXmC3AoH6z31k3qMja/u4Q+ZTSmxjvxJvYzw8DNG8mg0GjEA9q9uTjtzuN+On6u/D90sUixvx8xZ14eWsuju/PQ4dSKIpdKD4z+Uu6oy+kibXr1fabw/NEndecLwNBowiRNbpMeHOXDi9vy8HPt+Til1tz8PrTBpysyUdXoECAsehQH8yKUBtJPSVIjw38LjZmBGj+nZ5vt9cC9yPpKKVS4xh4/mw68ZsdvC6WfasAHc17Hn186UVT7U6WgPNRVhiKPoVRmsxGD39I5btGT9Hbta7irDEDkvaBYQu8uvmeWU0+217GvQhWVM/qDlmEcpzKybzYxLryfxvh6Ub4vsxiDwo+KL0dkyhw6QtZRGxuMEAanUEog/ULSlN8PKArb4fRF910PzeGwqQcrsytMHwXFmExA55bm4H99y7AFtH8IVFw4tl0eENJMnbek4xvP5GOQzuy0eWzoD9EG0fCIKI+wBzpwDN+26tVoexU3xuw4pknMsXOL3aATsHWkoU4vMcoHRXxPZeiVmhA2DNegKZeh1HodZz05r1at6/klmHE0Z6NyQJ1nhV3dvqtp6gSx3gUuZME6YEgCzWmAniN9BAI1lxA5JLyoEiQXJS82dCroF4BKU0svJE80fh5QdMdCCfr9UuxLXKDyWwwodWXj5+sW4onVzFfQU1xtVJPVusx4UY+fZUtBetsCdhakoCDa+5AnStPSH2KcAjnGXv9nQ11jA+kxTmKQhUd+kNW/HT9srFpzdiTsefeBDS6LBgS3rhOrONzY+cffI4iFi36F0rv+VI8aIY6WJVI6l2bR/d+vdfxGFav/tCYgEl78zXX1HlsN7T4Cn5BOo6UEaUOhdR0kAm4Dx7QK7soCa48VJDmDYVbO8YVCcJckDz0oPaxfI2P8uCNiM+v7DVMdhtfBecndJQ5Dwxo8ebj2TWZosCp1JGOUgoQOTLBsmlSNKkPvs5OTe1k0amHlXtlToYaElHzcBqOVeejO2gR80yKUalzbzx2ko4F56eYi0GzCNFtdi6IPcRhT0boW+noUixiJ0xglhosYz0vxt1H9i8ce4iDxS4ids1QiduARnd+6zGX/Wsa5o7BAkwM1vvs3+xWjP9Lz4KDSW/glKITcTCZYIjH5BvrBBnL+wmuI7PUBGh6yCYBvPImw9d4HUaZEIp4F/SohwI54JZSA+ix2Hwqvpd64nq0K1Y8X7YYm+y3C4YEefOU7pRNG2Tnd74mtFnOdoJPRYWT7J9EVNoThF5Lo8d6Viyf823880cC9NnCsKARjZ58VD+otjCTHr3ov3k2Jk2vXx4VjmSscybh5W1spMFQZTZ6Azr0hDjnxzpewxodahy6xzV6kjBaDJoATT51l8uEnhozvWjUeQo8tTuK544Boqb3W2u99s93ePNqqdNAMXc5OTg49KDHOqiT7f2x3FjUJGg8Fthku37tfEaCJkNd4YMGvLLDJJrm0kOmLADpl+dLA/A1qdlyLodeSgOkiK47P16/HN0EQrFbm4D5wzUZMOKlTXdgA28MNjYDHm6MXCWAORmlzhSUEpztCwWYN7vp2XPs5TmNNbzBz3LtM3/DZGEPBfojetHRgHi01yQ/mp43P88WWUbUe4p+f8ztzJ7eqBvj1VOEv8lr39IZKDxD73LqA7IGSCMBSXt+7nxgHqLDZ4L/fzJQaUvAOiGwRSAeG0tCgnoK9t2XiCYXAToWR+Dcc4lpbBQJlKzKY8FKlY3JywysdaajzJmEcmcSSp38N6sNU7Hd+XXRYSUsQi+X8HvRHDJFj14vQVaK+hN0RwPkC19ndSFpdyx8yUW7iw2O83HSbf/RWwdWfixGmJq+bzvpKVzU47f0Ufg+HDAIcaCYJk60gdRei8MWN06LShuLUcfi+F4dnlyxQCQEq+zpKLdnjA2gGZ+mSL4jE5sci/Dak1kYCKodhuI/fnSa+oImHN2jx557FmGtIxlrnJkopZYMFRidrDTMwGZHEl6oWIpOhW3N4nAeZ5UPJQf8LCd6jADd4TaDOh0d7lx0iAa1RrS6rX+p99ic0xd5Y7jyo+7757R6bZ4hKl6xVFrQ0bQ4rHaDisPinqQ3CALda09lY6PjdlHmz07w9J6HK0xHhjOiP2f8t9LO3pVLUGlPFB3SRbw3LjHo0WxPmd9svLU7F9UPJmO9IwFVtiRU2hahynY7niy5HS9U3YU2X77o8K6GNuIzl7mzNp6l3I3dgzaJLuBS7U6GSsKuXDR78n97uPruT8YAVdPzLSfc9iVd/oK3yRWWMbSxVxvFZwKMNim11zX7xncOUGflpS3LUOVYgFLByEhBmZMJtuhgHI17LPXGkwRAl9qT8FzZYkHVZOXtxI0XHSfSAw1odRnw8qY78Z01GTj4eBp+WLEEh/fkoIvJfeFkjUyWx8N+EqD7IpS7sQA038vQCEMcBGgeZHWEXTkMdbxX6131iEa7i3L/od5Go9f+fDhoFSwHetEiSahRzSZwkcVjsWjfMR4QpKf76+05WO9YIJgPVDFkLJcgHQ2Mo70mAZqx4CUotyfh++Xp6A2xbJw8+4kaHyP6FTMGWWFItlFQj66gBZ2BAvSECtB7UI++0HL0Uz9HqC/GmzIqwxxsLitLumOLQ/O9TBCOBGiCttp9pc5tq6s9YP98FIia3i/V+RzfaFNsf+xhMkGRdf+SyzlRE0z73olbvJptY7Utt+pHd+tFwYnKcyY4s1lDNDCO/loyKpxJqLAvwUZbAn65ZQn6QnoMKPEGxUk2riz99kqwvTAZGBtgD39OdmFpcllPH3c7yti5aXoj8oirP+kq+WiT3/6jnmBepPpJZqCnBt95kk3aCfOYtOuMFXTH8r4BJRetbgP2PsD2ZjL+zPZRZGVEB+MLQx/kHAtAty/GUyuScGQfy8enAUAzWenTjUnlbhiQzwXwdtFwVr520uNoOu5yfmkERE3vp7XeAn2HYvwj+Y2k1hGYe0VBB/UEJogupAHZBG5/NTCPFaRJswsH9Xhh/TIRnqCMJ5kcVfYLgXg0wGa8eq2T/f+S8My3MtERyBNjyxZpsZ7HVH5ft5eMjHMBdzQgHu31drdMHIbdWaKH4Qm3o1Lzoq+55prXXSUfbVFsP2bCgYlBAjTBmSAtq+y0xT6VF4927h80fylloEOTy4Sah1JQRiaEPU00Yx0NkKO+bk/CzlULcHSPAf2iYk9Kl04H+/f4jOMGaEqSdohu4MvR48qmHGnDsWrbF6e363zNNdcc9ZV8o10p/OMpQYDXRbQoKJdoABOFWrnzBy1w7e9TGYTojJBXfErJxrHdudh5L0uoWT4duwfN9lPbVyTiV9uYlDMKSQTpPU8PD7pXMaHTwwKU8XnRghvt0SHsXo5Wj/XMMXfx9PaiD1ff/eFGv+X5MCU4hYatbO8uvWe9AGctUagB8FQG4A86d6k4R1DNEs7Jod0mHHggGetsiSi3p4vWUtTgYIyZh9DisKeJQhB60pX2Rdh5TxJ+vS0L3QHK1lKvhmp2nDfTIzxIvOjxqBob1Nng87GDNT1oetLdpN+5jDjpym+qrSmavp1X6rwld3UErP+XegT90yRe9kELVvv7dLshUaWRh2xIQRZTvSsPz1ctF8C70X47qmwLUWFPFDQ80YFHhEES8eSKRXh2dTpO7BuuF2Dnlek3hwzo9VGlblifg9zmsXnUsgScZeDicBnQ7jKePukuemRahjnYWbdFsX+nN5gnwPlSxFOm30Scjovvar/mYYCWORiG+czoDuWhvkaHV7bcie+tTYfyWBrcD6fB9XAaQquX4qebcnFsrwlhhU0ecmU3lWmb+OZOwXi2HZaqdHfJAO0yiN6F9KLrPbZDh6sd06+6sN5XnNClmAdlrMyM3uBEkuqv9kWuXd/UvVlLcKEHLRo5KDlCUldI60ZaX9GrblcsaFPM6KCSm6jQY0NhVuhRHY7J9QlQrpsygH9u6fe4AVr1ot1GtHrM79Z67SunlRdNxbpmb9GuPsWAIZ9kbPRpAD0Nt6bajYVxYjaK5Q2GraUItOy/ecpnxJDPKBrICs+a6yO0HIPBuzAUuAtDCjvyyM4k7L4znemoMkRkRJ/PcFaCdNwhDgHSDHvo0OAtfOmo2/H30wak6zwl/9qqWDtFc0vFAileP509AA2opq4HPL6xY5szdvEmwLKLTlh4xVK7Qob9JICzKpAl0z0hA8Ki/yBlP+Wamc7gzHlDgGaIQ9hnRFPZSw5xjPCgu10GNHoK/vSW2/GNaQHQ7JZS5yt+vC1gOt3HTsRkb4hafQ2gpytITefrJsVO1Twn0EqwjXjUZ0MMMgwiO++wE4naxGIYpKezDYevnQp3FD/KRc+Yk4TRkooGtHssaPPo0egt+Hb9/gfnXfUgXeuy3dyoON7sFF7Acgz62KfMJERVhg09Pq9E+x7NftocmI5zQGVz6NAzTk606n13eIzocuWiyZ3XX+sqvu2qB+g6n93cqVj+EmZXa58OAz6Wpeqk8tVZj2E6Ti7tmjVQ1ebA+OYAFe7I5iDlTjdGml00D5qv5aC7xoBWtwW1Htv6q7r8m1uE5oD9WSYEmbEeVEwixMF/M9wxvsHRJrdmP20OTO85IAE6HAHosehEqx7zhY/Z6KkhN5rNZfOPHXWvuPWq9aLrakoWdCoFA5KxIeNqTIT0BtnxV4tBT+/FpYGrNv7jnQMSU3q9ks1xIdiO5iWP/jqrC9m7sMedhSZP3jvHPCW2qxKgV69e/aEWX1EVtyAClKlWFyQ4y/ZWTIBoE3S8E1T7vDaHpvMciCRTfbJoJR4A3e4xo8ObLQC6Q4Q5HD88tNv2t1cdSB9xOW5q9RccGlQ5nyJjzcmkes407nSeXNq1a+OvzYG4zAEW87hzRFhivCDd485Gh0cPAjU1Ohrdhf0nalb819UH0O6Vy1r9BX8YUliWqk3EuExEzY7aTV2bAxfMAeILO60wbjxugHZlod1jQLvbjLArG22efJzwlpSSLnzVgDQrB08q36zuCeSJCqhhr1kDag2otTmgzYH4zoGBoEF0WhlLr8LRgJzxZ7UZQK8rSwgp1XlshxgRuGoA+qR3xRfbFEfbYMCk6TtrHs8FHo8GUPEFKM2eshVWl2f05N9ogBztdXb+FolCV454bHVb/lBbU7T06gFon21Fr2J6/23qbgS1WLO2gDRA0ubAxM4B9iqMB0CTxUHQll3AWVlIzWgD6jz2HS+uXn3tlAfpo+7757T5858VAuIK21nFc2CoAMaYNpXwcgU7RC2XHfko2SKk8vG3WU5L9ggba6oJyniek/Zdo4MPVddkazNR4qxQZ0K2NuPYcFxGHlLhTY6RGM+gAb3cvkbey98RWhZiDvC7NdtfaRtwXZE2OxzGjDArWC0sJB1kmbpck+r6kyXu6tjH4xrY37Tbo0Oni94vAXb4iOYlj/6a2qlFh3aPCe0ecqL1aPQU1R6vWfnpKQ/QDR77/xf2mTvZMaX7ILukSBWu8Q6CWKhU/gpkYzDIVj+5grY3LLzEwZcHJ01PKNLpOKJ30BMiSGsLerzjMKbPC747b6a8sepBRg8PKfrDRX3uMciWZwoBnWL2crw4ZuEQQYALXYoKDQrQ1+RqxzQWE3Qz49iEQ3SacoVsKpX5xM04ojnC5xxL8b6Ieh/PmzdgFbTj5TiFvVKXQ5Uf7XGRHy0BdnRA/uCwCMG+3W39yzGvUz/lAbrWX2wPK/p3hwK5CIfkghzvRBKDKbp+S+60XMDyLjwYzMbQiIP/lt6aRaiGiQVPqp9iQb9Y4BpIj3c8Yv88u7RTvZAceC5I7mpyMBCUvSc5R9RjUIC4DIepu6RBimuJilPulrgbMyMcMINym1SCi/08tDGfSFvxpnvKxz6LuRgMZKE/tAx9B+9C38FlQjJV6F4LWVXepOVNeFCRN2eCc7wcp/PlR+MH0Dp0uM047inedWi37bopC9KHdttm1/scoR6WdQeWRzweej3jXz6yBzUAACAASURBVCADgq6XK0FXNN60IBywos1nRbPbhMYaIxpdRrR4zOhUCtAXKMRA0CgWuBRG53loizoeYxHTd4geeSPCUZTWDBFcregMFqDVm48mtxVNLgsaXWY0uixo9ljR5rWKXnt9QRMGQnoMBSOemQhrUENZhj16p0n/vZhsHYf1dam/MyAaDnC9G9EXtKInmIc2nwUNHjMa3GY0e83oonMUtGAg0n2c4HwqAtTcXcVtLBUj1LJv6kPHC6AFfc+jR63bfuLYAeenpixAH3c5v9SqWDtYLchtKMX5ZWhivADNxpj8Tj3CgTw0Vlvwm23L8dwatgRKxZ77ErHr7kXi2PdAMvyPpeNHlUvxxs5ctPhM6KbmruZxxeVGGdNCFuCsF2GovpAOHT4DavcZ8MrWLPyg4g74H1+MAw+lYde9Sdh5T4I4dt2TgP33LYL3oUQ883gqXqjIFI1R6/ab0OW1oi/IRU65Tc4D7pLogY13XmmfH68N+4LZCAd1aFPy8fpOM54rXyZade2+Lx27703D/vuSEXwsBT9bfweO7jOjM1gkxnIooBdrWt0Nj/c85OeN6PUY0ONiqCO+AN3lyUGDp/AvR7zFuVMWoOt8hQVhJfdd4akqZpzy0mOKj+4GF2h9tQk/qFgqFvZ6ZwIq7AlgU03R+diRijJHMsrsKSizJaLStgibihNFT7dXtmej3WfRGCWXCdAEL1XRo77aiJ9tzILv0RQ8tXIh1jsWotLB7tWRcXKkirErizyWO9JQIRqkJmCdfRE2OBbiyZWJ8D2WgV9szkFdjQXdQbO42TKMFZ9FrX3PeOzYHbDi0C49/I+lYUtJAspFs9skcEwrnGmocKSgyp6IKvsCbF+ZKNYvm+T2B8yRfEM8b7QTCNDuHLR6rKjzrtgxJRXu2qqtf93iz/f3iYyuEf2KGYM+io3LJFGsk4AxKpFUYHiCYQ0lB12BPLzylBl77k3COtvCyKLOQJkjA+WO9MiRhjIH29Tz33ydRyYq7SnY4lyI0BNLUHuAXhibbmbLBIWYJExaaYs0tvFRWTTD2XjRwonx42C2SAaGg1acrLEIT/npu5OwzpGEyshNtNSZhlJnOsqcHKfzj3SUOTLFmHJcyxzpKLOnodxO0E7BOkeCuDG/sO4u1LnyxU6KW+U+jiW31wHmGNSkozaesY1n7HaSST2GCJnEzRI5gU6fVdyAt69IQJU9QazLUmcqSp0pKHUmo8yZDP6b61KMpyMNVfZFqH4wCYd3M1Fogcw9cD6pzA7mIdh1hvFsdZ7Fep5GqMJJaqKQHVLGkyBUPyu+z63HSVfRoUO7bTdMOS+63l14a7fPXD/eicHeazKDbxJJhz7FiBc3L8eWFSmosKei8ryjgnfqKMfZ99E7s6cIr+3Ag2mo25uLoWAOekN6hIMWDLFLsrol14D6A71SbklJdZPjzMXEBGwuBoM5Inb86+052Hd/EiodSSizRx+baOM12muVDjnmXOCljlThhVffn4jfPpUrkoZ0CAS7Q8mTTVgDvFHEuqC198Vuq0hSXtg3Bx1KHl6oWIrNzoUoj3GceVMudaSjwp6I3XcvxBs7OHZmUcymtgFjwpDrnxIRZITEfn4cSyPY91SCswxzdMWl0wr1pvUIu5ZTyP93Rw+sSJxyAH3CXbyk22/5Y/+4wU7yKIfYSDNgFLHmLSULhSdM0KU3dRZ8LzIxLniPAPYUeB5OQXMN46N6kZyQ1C1toca6EKS3aowwZQjWtJ0B9KZ+vO4ObC5egAp7MirsKSC4jga8sb5eKbbIKWJnVOrMECGsKtvteLLkdvx803J0BqwiNyFvsvSgx7qotbGPZezpzcrEngHdwUL8ZP0ybHYsEOsy1rGU70tBuTMNlfYk7LlnEY7s5niZIk6SpMbKpCG9dcnqieX85HsuBOixN5ONRrsj6BsQdmWh2ZuP456Vj04pgKaQSIO/uLInYB53uKCXVDjSdhQdmvYbsPfeRLHtrXCknwPMKgCPNjnUv6uP9L5LHUtETOx7pZnoFiR6HXoC07tDcuyTX3JXw0FS50yCq0xvuj9oQHcgDz9dfxc2OW7DWkc61jqXoNLO7WzKuAGaMUyCNENXpc5M8f0yRJKCTcUJeGkzGz+YRcKJ4EzvayzXpL03Nnsx6f82w4+hAry6w4htJcz/MCyVEfMYi5utIwFlzgysdS5FhT0JnocS0OiyijHsUzh+w5TKsTtPBOjhDisE5/gBtBHd7my0es044XV+v35//tTpV1i7r+AjLf78X5CxMd4JH2a3XhYpKCa8UHEHqrhVdi4WC14F25GPsQI0P8PJRC9s28pEHNljAJNZ8WGZxDbJx2ubK/15lYtMz0byWPXoCeXhjV1GbFuRgApHEtY6CaRy0XJBjjY+Y32d22OGOQjUMtzB52nYeXcSju01ysShQpaHRqWciHkyGGAYy4B6Vz72P8BEfBLWOjJlyCLmnRJvtoxVM9SxRDxusC/Ac2VL0RkoANc+w2XyRkvHaWwUXbXbd9gjW2DFG6DZDqvDo0ODx9Z+pKbkC1PGiz5Ws+ornYolLJM04wMrWRmYixa3GbvvT0GpI014UPTGRgKz+ny0ha7+feTjOpHI4EJPxQ8r7hDxr6lF1+J2UN3Cx3Iz5HvU4/xxGe3189937r8J0lyspD3yeZtSAOV/0lBqT0K5M1ksQMHUcEh2zWjjM5bXCcp8PwGfSV+OaYVIMmagypGK76xZjE6R8GVyKRa7nHtNEwFosX3nyLG88LwFjz9EPrgJgwfNIw6+ZhCH+jsDo45zvK5VJ3IMPyhfivX2hSLRywRg+RhvwuUOzpFksbviODI/tG1FIt7YKW/2xBBZt8Cy/gttol5vtMdoAB2fGDS7rBgFOHd5stHiyX/nsKfYMGUAus5jK+z1m98VW95xbzGzhfbCm7sM2FSSJO7Q9KI5qGNZ1NHeu87OcEka1jjS4Hk0FZ3sMC4y/+pCiddkjv/38MbVG8oSB0F3gLRBwV5g6EEFbnKEZfabsWEuWmpfiC7qAQPCoRz0hAzoCVrQK1gPcrcSbbJHe02wa0QJPQsNskTc8MQ+k6DQlYkwBD0kdazi6z3L8ZThDrlVZtKYicNM7Lw7UVAwya0de2Ip/mMVzXbqa7Lqjje5HPQHsyL6MGYMKKx8NYldXThkEgVXbzyVi+fLlsL9QAL2lNyGXc7bsHflbfA/lIAXKlJxaBe33OSI5+NUkGEeqXvRL8qtybhhjoCAd+nzW1TlitCREcf2GbFrFfNBkqHBHdOl7ZLUcZQ5inJ7Enz/k4kOUe3LkJUBgz4ThnxjBWg553t9UuyoUwgfjZ/FIXU9DGjzSKDuchvQ4M7fPiXodlR4avA59vYplBYd/2Tn3ZNUuFe352CDQ40/E5zHv+DphZPKxTjp3nsXodUzkuYz/nNXF2H8H8mU4CImdZEJFWqSLBcl00LHIGRA30ETwgfN6D1oQd9BPfoO6tB/MBf9z+Rg4CCZDdlSB4OATS2EIEvxCfhjYT1I3YXeEH+fNwMDXt+hxybnwnHfPKPdUC/2WhW9L46lczG2FC/A0d0EIwLfZB5HyVAQN1iuF8WIIVHivhz9zxjQ6jXi5+vvwMb8f4fltpux8JPz8KWPzcHn/mYmPjPnWnxq1rX4zOxr8fm/m4l/+fhcJH76wyhceDO22/4DL21egnYB8GYMBfU4FRGpYkk8dUzGNif5fvkZAfKBXHFTZ5HRJsciVNjTBIXu0gH63OQxnSbmE956Ohv9LP0WITQjhsZIOJDnqgcBWor3E5zHr8VBqh1Buc1jRJfLirBbhwa39eXaffd8ZNJ70W8dWPmxRr/9VW4v4rI4BLXGjFe3ZWEjEwqOTDEhLrZYY/1bFSeWY7FIbuy9ZyHaPFaxqCc7D5rMCQI0C3/e9powyEn8bR06Q3moq7bixU3LEPqfdDxdcjs2FfwHNli/gm22r6L63gX4flkmXn86F030tEJmnArq8DtluQhRcPGGx5Q3YJY9V1AURaglaMGrO0zYwEUbhxtorOMo38c45mKRkNxSfDuO7CYwmzF+FtHEArxUf9OLKtu3vRYMBi1o8+rx7OoUOJNuxddvnIlPz56Bm2ZfhxvnzsRNc2fi5rkzMX/E4/x5fP163DRnJm6ePQOfmnMtvnrzh7Eq8wv4UcUd6PTlCZAm31+KFI3lmlRnQDIrxA4zqEO9y4hd99LzJX89IwLQ49/VciwZwqqyJeB7azPQHbSKRK/YCY6RZhcdoMfvQUsutEGEOLpdFnSTD+0pCB86UPKvkx6gD1cX/3uzP79XqFiN8Y432l19IGDGW0/rsJUcS5Eljj1TfLFFTmZBuT1T8DbdDyWiw2udEkklSrb2kn8aXAZ6rycOmBB8fDEeWfZF3PWlj+I/b7gOn/+bGfj0nBm4dfa1uHX2THF8du4M/MtHZyDh1tkw3zYfm4v+E7/ami0XMOlpPoZAxrJ4uVWmimCkqCBoxpG9FmwroQc9/h3Oxcbuwr/Jm22pIwM7Vi7AyQPUHmdiaSzXc/nfS2eAFFLy/cNBE17aqsOqzH/EFz82E/NnXYf5s2fjljlzcfOcmbhl3gzcPJfHdeK4ZY58nD/3Otw4bwZunMfHmeK4Yc71mD/7Wnz1xpn4VvYX8cbTevQzds2dlpDnjfVaObbcrXE3IkNnPM+Xty6XCXsWEznpQSfKMWchUcxJwnM95+HPpQlq5u57EkUSUpT0RwqfRsOIaK+rAE0utNSGJjjHA6Dl93S5c9BTY0GnS48Gr+mdWl+xddIDdL1Skt8dMAv1uvh4ooydGdBUzcpBlgWnREpGRxvcMbwutsXpqBB360whtiSTbpceo4s2USbiNYYwjlfrsWfV15H9lb/HF/7uWtwyawZunn0tbp59PebPmYOb5szFTXPn4Ka5szB/zqyI1zUD8+d8CDfNmoFb58zE12+ei/sW/xN+UnUnusmYGbNGNregUvaTC6Ldmwf3Q0koZ4m2k2NxGYHayaKHJAQeYz6BVK3JP450ZAjQHQGrsFvyZ+eJMRRg+zczcNO863DLnOvxyTmzcOuc2fgkgTraMfda3HL2UIH7euF13zr7Q7jzSx/Fc2uXymq9MXiivMHxBkzPeSggE8FdwXx8+4l0UewlKnSdyahQw1r2eDhPKWLurHcm4tWnJLuKNxWp5x7rjYXxZyl1ytxMvAGajWS73VkIE6DdRjR7dfSiN2P16g9NWpDmybUEnFs4oBzMeAA0eZCk2nQpeXh2Lfm0iYLYfs7dNoY7ttTnUMuJpeYD6T0kyW8qXojXdnC7TqAhrSf2STCx75WeqTwngg2TJAaQX/782gyYvjYfn+X2drbc8s6fe70E4XncBnORRh7nyEUuFrZ4bRZumTsLN3NbzGPWDOFprdV/WZTc0tMantz8zYsXfHAB0A6s9iIV6uWt2djgjCSMImXcEqjPB2t6W2P3uDhucvz5fZEiGFG0lIQtxYvwm6fInzUJWYDJBNJyPURuGqJRgRSQavOZsNV2G/7l47Nw8ywCsBwvcVOddy1umjcDN8y5Dh+//np8fNZ1+MTsa/HxWTPEI8MeHPeb58w6e3xy9vXgQWC/ec71uHHO9bhp9gzcdvP1qLk/GV3BQjGPOMYcN7Jv5Ny6cN5LgJal+7Kq14RGdwH23UvtG9qeY5GICifDWvR8xw/QTDRSR6fckYTvly8VoSqe61hV7obnsArQ0YpOLuU12Vmlx0WANguAbvPlMA7980O7bX87aQH6cPXdH25XTC/SkNI48QK7XFEAcXi3Dk+uWARuY6XOBkMU9Jo4SSKLNQpYE5xF/T91HyKfLXMmobSYhSqpCDyWgk6vBKWJBdwLF8DFfo8gIxI6oWUiw98bzBMynBvy/wNfueF6zJ9Fb5gLk9vg6yUgMw7JY+51uCVyzJ8zU8YnBThHFjMXtfi3XODcDt8691os/8on8KOKTLGdJcOAaoFMKMayLVYXPNkw312biQ2CfrVExIUJpFVcyBwrhpZGaG+MBtJSr4FjpgKyjHEyRlnuTEKFiHUTKFj+nYn19kQ8X74UHUygCsbC2Ox9sbEY799EiIBhguAycW79Sr4IpzGRt7HgP/HljzCcwV3PnLPjyJuoGnv+t3/6NPK/kYVvPXQvKlY/jvtKHFiStBCf+8T/ETdZcXOeMxOfnM2D4Mw5wLnAcZZjzfny5RvmYM99GQgH84VWM3MIZPGQMTKaxAHXM5lBIhEcNOHQHis2l0RCGmK9ce2pN191rMawk71gzbIQKVVUibofSUO7j7aS1b6XNg4G9HolF7rLNf5O36oeB9tgMVko/61Ds9vcfqSmaPLyoRuqbf/YHjC1CvF0sY0aP0DLu7sU5ekOWPCjdcuw0bFIxLykAAvjX6lywVLR7uxEGTlB6M0lRnizLCslh5aiPZS3TMLRvVJ+lNs4+XuTZGEHJQdUcnmNOHHAiIfu/Dz+cd6HMH/2jEjIQi5Gel1MHN04ZyZuuP463DjrOtxw/bXi4HMmkKSnRQ9txAKOgLQE6+txy+yZSLh1DoKPJgsxfEH1UhguiD3zzxtLkzsfz6xeLESNSiM8ZclBZ0VhKqrs5L4mglz0i1EmyatV1Qml55wiPiPAPnLjLbWT/5yEZ0vvRJOvUAhfyRvKMPvg0hZ2/OYBPVFu0QlypxQyZQzoChZh36qF+NePynDT/LmzcOO8a88C601zrse/fPoWrF/7BOqOHcaf//h7nHn/XeD0ezj93rs4NdiPH33/e9AvzcT8eRLMCcznAPTI8eWNevZ1+OoNM/HM45noD5nBhhbU1OYNZLQdryznl92QBkMmvLRNL2+2FwDryDU3nucS7CmORcpkQw21o2XI4tLGcWIAWgVq9bHFbf3TkQOOxZPWgz7pLkrrVEx/IBNAetDjjwGqk0Pykw1o8xXgubWZWC8ShtwG0RuTimjk3g6HPoYnCLdK0uOip8UScSljuXPVQrz2JJNcvEPzXGXC69ImQfwWs/r7BJmhQDaGFCvqD1hxX+an8em5BGaGJyIe0tyZIvZIwL7lw7OR/LV/xwMldmxZV4FtG6rwP/ffg6VJC/HZj38UN86W4KxugUd+h/r8k8Jrm4l/u2k2Qo+mYIhyngqTbbEDNHMGZFC0+PLwg8qlImlYRc0U22JU2MnCYaEJcwm8cfKmGi37r3Ko+R75d7FrclK7ITFSOp6JKnsStq9Mxg/X3YVWn1XsONh1RcQsBS889vNW7T4Rj2rbNXKT31ayBOXx+Yq7cPvNs8RNcf7c2SLefOO8D4mxvWn2LNz+5X/GT37wfbz/7jvAmdM4c/p9nBGPp+XjmdPgfwP9vXj47hW45W/mCI85OkBfL3dWTCzOmoHMf/owXt0mqwGpRkc622jXrfLrhU2DlPi9U4Qao621eLymcqm5291asghHd+sFH1xWFV7KOjNC7a4STw9aBWb1kfKjxz0lk1eXo8FfdG84YDpDKg8pdmNjBEQ3vGAICM+DUqMMdRjR5rXgB+tyhJ7sOmo9c8E7MyMMj2FgVicL48yUtRQMEHsK1tkWYc/96fjtTm7hWZxCD0LGWSUjIfq5jDaBJ+p16dUY0eq1oPQbX8Ln5s0QCb8b5w2HJxjOYAhj0b9+EZ59u9Hb3YH33vmLWLj83+nT7+F3QwN4/rvfxvL0FNw8j+A+azgkMgLoCdKfnEs2wEx8fM5MJH5qDn5asVhIxEqZ2NjsInjZjEcH9egIWvHbXWah4by5mCGOpIg8LMckDWtFyfaFYybHTlaZqcUufGTl2VqCuz0Z20sScPDxVBzZnSsYEASZAdGjkgDN8Rw9tjpRYzba96oAzd0QC2hqD+TC9LUbMX/WTMyfPU+ENsjEuClyA/7iLfOFd0xgFgfOAGfOnB3X85/87tQgVuSZcNPZ+PPwDVy9+aqP8+fOwS2zZ2BV+mfR6mGoIxcDQhY4+vhyV0nmEG3KFmPPrCbzKdpNdbRxHNvr6g2ZtMmNzgS89hTborHA6lL7TpKWKjU5JhKg290mnHQVHpiU3b55Um2+vN3cClOUn/EsAsxoEzbW14XcILc3ohhDhjq4EDsCeaIclPHjrcULUWmjOHj0cmKxRbanYL19Eeg1P1+agboaMyj0Q54sbyQEFZ4TF1Ks5zbx7zMgHCzA/nsT8M8fZbJoNm4mOM+JZPLnXitCHVlpSTh+5C25kEcuaC5qnBHeFhd5d0cbSgosYjtMUFcX7MjHT869ToA0wyUEj6yvfAJHdrMXYPTFG90GcjfCXYna+qjdl4fXd+TimScysHPV7djooMpdEkrJRRcx6XMXscwbMP6cKt5H3eD19gVCgIndVr6zJhNvPK1Du08V7Ofc4O+q4zfy+VjOfaLey10lD1ZvWrGj+HZ8bt6HcKNI7ErWjeA2z7tW7HRWP/Ig3v3fPwuvmWN47n9yXOXrKnCfxokjb+E//vEzZxONHFfmIUaOL58zb3HT3Nn4wkdnIvhYBgZCLNCSDkq08RQALUIMTNZb4HssMi4TFOJQAZoCStSVfnnLcgyEmFe41JDp5QFoxqMbXQWvvu4q+eikC3NQIKnDb/kVt0PsoC150OMHaCYnJL1G5ehykLJFb0F6u21c+E8b8L3Sxah+MBlPrkrG5uIEbHIuEseWkkTsuicJyqMp+PmGu1B3wIQw5QwjzUrFoh5xM4lXR+FoE/2DXpMxQCZkIrHToB6/3p6NlM9+WMaWSbmaS27zTEG3mj/7Oiz6yhdx4vAhsX7F9jeKl3XmDEH6fQHW/eFuGO9aihtmXbhwxYKeMxufmjsTt84lePB3ZmB17pfRqeSfk/m/WEya48UbHW/QbB465GO5OT1qAzoVq+Ao87q+X3YHvI+kYdd9adi2Mkl04ODYqcemFUnYtjIZe+5PEe97vuIOwdBoqjELHYjeEKvimN1XY82y0zdj4NJ7nkQgLTqY69F/MBuH9hiw5PN/J71nMm7mXXuWccEb55dvvRlHDv1WjulpetAjAfo8cBae9Wmcfv89vPfuO3j03lWC1SMTxNEBWjA75pHdMRPmr9+MxmpqMF/MVvSgZdiy02cWbeWoxa3uUOP9qIY4SoUoWjJ+tuFOkRsa1h0f602UxTYG9DCpF8ckoRraUB/Z87DVXTA5hZNqPQWf6VAKmkhi50HK1WhJhw8Cqtj+HvGUWPkW5MI0osNrQN0BCw7vNuLQTh3e3KnDsX2ygWyPL0InOlspF/n8JKHU0UsRE/D/Z+89wOMqr63hCzb258ZPSS5g/GPTfiA38CUhIYQPY6t/bhgXSZk+kmzNjFwCBkINcZEld7l3W5oZjaaY9AQIgXCTm0ASqjFyL+rFkgyk3Jubwvrv2u85apZsyZrRjOzR85xnRlPOnPOW9e5377XXZqHLoJJbrPJb8eyMu3Db8EG4adRIoVuNGTkYN48YBvqKx149Eu6d25V/UvNHdrS0Ov+nJvdv3ngdd990o7hGOltXrXQtLVttzIjBEvn/ScEMnN7HggYZMthZUbt3/duuvRmjCKnAbG2pUZgpB/bYRFHw3e2q39h37+80oXyPRYoAV/v4eYIEt9p9X/h7NsZ6CwTn/jwtwIaQHTsWTMRtoxhLGIFxGsNCUSCH4vphV2BmWhI+/eRM58475/9cnPn3o+/tw7irR4rVPLaT+0rv67HDh2EMqXsjh+KL1w7HDxZPQVOoex0Wzi0ugmx7MnTcTzMpKBxsje5AXrGyGF9akZuGn6+aLlxspsL3rt/4eY4VAyhdWusJl9xo19S82hIzqkqy/3N/sWNa7FnQnvmJlYE5n9CqJYuD8pO9m8DnHtzn6hg1adXE5eRtkurdJLibW5+LK4OR9F6Q9M/1m+F8T08G0MvNiwUdsuGXq6bjgRuukIQS4StfyUnNpIURAq5J938NtdWVYhm3+inPPY3F0iIbYI4xA6OHaYyBbiay0PXIDhl2OR6bfKsEaCW2IJmMupUann6TPhMrTe8zWsc2qXKjLGIFEGGRD4jKoqxcMMe9WcgZP0balIFBnR4pAD1C8ZznZdvwT7I1evynubEAvPv7t3DHDZ8TtkZX7g3ZJRGgRw6WWMPNwwbj2el3okaEibruyzaANkC3oMX1FDErWgfo1DaADlHS9kIBOrOfANqESo/9nx+WzpkXewBd5jJXl2X9jf5hAjStwf4CaB0s+XvNkvGk5C+ZLMOahioA2PXg078b7Ue2WW2IOsaKWlcbzMbijLsxjjoMo4bhBqbxEqAlm2yE0OgW5eXiH39nhF/3Q55/Rn/2z78zdIgdG9Z1bUF3Bmv6qkcMxjdGX4HX1mTidIjp8IqOGC5KIvuHlrlUame19tZDCwxr5Y7CEXSOVj/zHmml/nq9AePHKM2MMZJIomIBugV93dDB+FZujuZ7Pn9/6p9QFvRn+ODdP+CuG6/HGDJ2Ovdl6/9DxTctcYbhQzD1riuxfyd3ol3vTFp90EEDuJPxPM0isF0zpsLj7iBAMyCcIgD9i9W0oBknunCApqKfsqB13nLXVrDurriQxxo3JUit+MibswXAZTEF0sf88wpqRT1rNupCBMP+B2hOPq72Zx9dD7xoTdaufpdWdE2IAa8MUR77YKcVk+66GjeQ1yz6CoMwRjiy5DCT8zoEq/KX6POzx4/6VvhnP/w+xl7Zka6nb4G7erx5xOVYaf866vbN0ShszNYLT7vyPF31mRQKlULBBOp2LpKoWMB9W+BF7CdkQcm30yQ42LmNFUAPE7+wbfYM/Nd//rnHfcoP6gD9+is/w83XXqkFBruOM4gVLUFiWtHDcM/nhuLl/Kk4TQOhi7ZtzSakil3AhrJnmUQSORaHAvlEAeiVjlS8sf4RNIQYzO/6+rq6ZvUaP88xqgKgdV5VqupCwLcn3xGA9phwwGP/3puhx4bFDECTwXHYt8DDrLfTwRmoD7FBLjTi2reJoCa7SpHWn6tO6tt5ux8EfT+vowNo0QAAIABJREFUsB24wgdVpPpM0IjvvTAVX7h6sJaMcoXKCBsxHBTGYZYgAzxrCpf1ahK3TWTg5R//EON6BNBkGAzH6OHD8M2v38gimWgKkjebIX7BcLSL3k8dH9sWWhWQDM9iEI7rvZBzyE4uaMEL37xX3A+SAdpq0WqsHKZljxyK+794F04eO9qLvv0Mn0kw8R9YU7BMzkHruTsXxxjR9+BvUlxpKG4ZNRQ75t2P0/u6BkDRHhcKY4Ywn763ZFo/ADQrrSRhjSsVb25hMg0X6d6Ogf4H6GovNTls776z49HYqfRNHdQTvpxf1UsQhFxFNiQtnmhYPfrvtn/sO4heyKTs6Xd0gKYVKW6hoAkF1q9LKreest0WvFMAff2wQXhq4Tx89g+6LHrj4lBsjuLtWzTw75pu18HCo8U+Yhjuu2kEWKX7TJB9TAu66wnd0/vWP8f7FzaNjBsCs77AtoE0X+Pnw+U2o7YwD5XezLFCg+JCebbnH1+0oOv+p+6lK/lW0dAgze1sAKWWylChQe7askkAmgycVjqdRpts7W+dUikBws/QUFuNKQnjVUISwV80Wdr6V/dzC02TAE4OPbVcRgwVnr3Sojn7Xlot6OAsSQR6eeUsoT6Gx53RTaDQpdwo6+clSbCYmjy97/v+BWhJ+/Zm4qjXXhlTJbAOFTvHVfnNRzjIWaGDIvKqMaMB0GcPMB0IYv1RAZUZlf9TLNOZcjtupDJdOytLf86JPXrYIEye8CCaGurbAXR7OlYXBhjpdv/8u/BrF+TYzx8kbPfbnMy3Xj0E+74zCWfowpL04HDpl6gtKKs5U+dauTsi24+qrfkb7d0rvbXQen6NnA8VXhNs3xiN0YwrjCQTh/S6NgDV+5fp2BO/+iUcOrBf4gXQKJJnAbWWXciYwt//9lesX7EcN2nZhPq52j8yIClZpEz5HjVIXGU0AK4fPgRPTr0DdFF2NUfYH0KbDM4SK/s3m0xYLVIJzMzteIQDtFn9vZASps4UbH9sIo65rWIQqEW8523etvNS4yvSLg5VFMCI4965n5Z78/5vzLg4Drhd91SVWWoYxKmRpBKdshMH6K4GfHevMfjGQgdH3RmYfe8NIM+5/QTTn4/TrJ9brr0SPwgFNIBWNKsuYLn1JfFT/vPv+OCd3+Ord9zSsyChBtL8TQYLt+U9gDMhcxs3PSy7JDVOuIVlpp34nsWajcz4EX//vgzU7MsQAXu1INjQGCC9MTIgTfbJSXcmTF/7nAA0XRndATT7mdoplpkP49SxI5oF3dqNZz0h/9nv3osv3Hi9fE+3zAn+elq/Sv8eqtHvrtAAmouDcpctSLkFNb7udkSqmPJpajIHDaL5zSxOvR5ke5AOB0Crc1BUKwm+Z1O0UnQXMhb614IWP7XbgBOlOf/4MJa0ocu9rodr/da/nPaRiaAI7XELujcrPbfu3OYToK3Yv2uGBAilQkY7K7YVoGXiDcGNw64QnY3qipMAdRo0rYaOiQ1aAEmYHv8Ufu2COXbZBuvn68njWKnYMRirbfeimUL4zCyUrMtwxBoUv1mSm9gGwuLQrOoIBAcJ0NSLYVISq4w0s54iU8TDsth03e8C0J5MGO+7HqNHXCEKdOcCaPqQaUlPT5oABv7+8y9/OguYmZzC7NDVy5bgC2OuE4F+gjOPG4YpoawxQ6/AjUO5uCpwVn2tJEwJ4PwdxjMWpt3arQXNRUslAylWzQmvDcVPJqEgl3KjFB5rs6LDBdDkWbMY7SsF07Rq3hcSlO5/gGZR2pPeLHzodSyKGQv6oM+R0+A3/aMpYBMLuilALYSuB2p31uOl/norQAeteHfbdCTcehVYFaM78NStI1K18uwW1FVVgFthBot0poY+o/X/mfyw/IXncPM1I3tlPatrUJlnBaav4HTAJkydBvFF9x2gaTkrCh2zRmmtWdGwjzKnkbFmeV4WzqVQ/hmhYaaLb7U6wMK7kflNzofKUjPs48cJQJ/PgiZwctdCts5doz+PrIwZ2LZhHX7+kx/jjVdfwT6/F0uefhKJX/uyMDG4mIvlrEnLPvSVu/HkfBcWP/0kZk9KwS3XUO9D6bbwczdK9iJ1wRVAPz39Tsmw7W4eMjGJ7zHYyQINP8mf2gbQ7dwc4QBoXYp2fd5EvLfNINolNF56qwfd/y4OlQhT4SHVzrklZsT7D3mzn+UEaw5ko4Y+aPqq4gDdpT+vuwmgA3QjAXr7dCTeRopd1wDNpBUGk8Zqoux8njE1TSbuX/70Rx2XWx//+6//hQ/efRvz59gl+5D8V1bmYLCIySrtj+4WBGoKk/K33HQvTgeyNAuUspnhA2ha5WSyHNhlwpsb0lHp0VTMIgKa3K3wsKB8lwkrLV/GnscmorbXVK6eGSLs35qAFd+afIfm4ujeB80+4I6FhwQNR1JCdpBYujdfOwq3fO4qjL1qBG4YPuSsnRDZIQ6LCSePHpbUb+6qPm45jS3rVuH2669RC/NwFmqgYNYIUUIcPWIwCqz3So3KrsYn5zIBmq4g5hk0BY14a4sBq1gxh1KyjpRWX3R4AJrVWlKx+8k0nPTYccbP3Q0BujsXTHd9EA0L2oBKjwXlbse+8lD6kKhb0aTYVfqzSpToELe+tED6Pmm7GigX72vcvtHHxrpvZpTvysDUf7tGJmRXgCkJBprrgxYQwZNSonfd+HlkZ8zA1nWr8IN9AfzwxRB2bd4gFva9t42Tz7R3m3CSM604//mnUfjdZzErLUnShKkHMXbUMIzTdKNVUVK6VAZLEVq6OJp9FJuixXshvsGOE0oWJw0YWSR0hfkeTLhpGF5Zniop4af9qnBoY3C2CMv31bIm4AirgskPQQveXDcDX7tuMOYkjEN1t37Yjtfc27EoyVIhK1Zm3w+mz48eObxd1Rv2YeeDizMpjh1fl74Xbe+215WrYphoe0z4yj04fuSQtjjrDBDgv/7yZzzmyBG3mDrvSAlQjqZ0wJVD4H48Aaf3KSu5q3sjOKudB6urUJzehp1PKFF9gvQq6no7qN1NKdlumBldvE7pXxZvXuFIEY1w6nBQdZJ+7ZcLpqPRbxfZCGIKXVNdXVv3r7UBtCwypWbUuCOXqKIE/DNR4bXiiCf79Q99rqujDtAvbVwwtMpn/V4Di432quBobxv7Yv68AfUi92hCi9+Akx4bTPffKNvbsydu28Ts/B7B93qK9EsJLGV9EbhHDx2scW/VdznpqdeQ//wzaGqoUyLwn/0DZ5oasXLJd3HLNVcJOOjC/qyLR74staiLH5+AlpBJqolTVjY8AE3fJguaMgvVjmXGL+H2K4fgxRdS0LiPpauyxOfdEJqJJqrX9dGi5mQlxY7xkjNBM/5j9VR85fohyE278xyBsr6NP/rVm/eZEPzOtM/uvJqBOXLae54o1Lmv2/8v7q4RQ3HD0CF4PM+hLGcyPFr1WRS75wf7ghh35XDcKFx65d64YeQV+PLokfj3NTPRFOq5e4dp+K+uegQFjonId0zCSocqcaaKKvQcoFfKdycJSCtrXKkbrp+fhAO7zGiSvtbHWW+NgY4A3SAAbdYqoIQ/k7DakwmCNC3oE945Rw6ULLg16gC93/PEiAqv5WUO+u5Xsvh7524bKr3NlvZr8WegNpCFJ6ffhZsoknSWZdU9QNO60q0ugrBYwu2+L9aYVlXD9MhUnGluEh41g03cCvPv4zMtsGhqd7Sg+fs3MpNxxDB8+fND8FLBdDSHjGjxs7gBi4j2dtKcPRaUBU3KXiYa99mxIffruGPE5XA/mYiGF2047aNvmGnws9DkDwNAU5OZ5bxCBrQELXi1YAruufYKLHr4C8JVPndfnX39Pfk8760plIm3t1mQfNtIScVmYd+Owbvu+7Yn44B0uecef0z0VgjOrQCtATWrr9xMX7RUBh+CscOHixEw+6ujcbiYzKue73w534+xaPHjSVjGghm0ep1Kv7unFjSDi8wUpAUtRTekHB1L2CXi+0unoiaQpVQQNWzhOOlJW7d9piuAjrQFzZJaZpxw2+s+LM69O+oAfdg/f3R1WdZ7bY1yYQP40v6+AY1SVp7AoUBq67wJuHXEZb0CaE5icXlo/uXW/zuBNNkfm9esFEBWQcW2rTBf3LputbhDdCEfAelhQ5B6x5X4YIeyali6KayuLD8lL9Nxep8FxYsewp0jL5NCqrUv2rUUXwJ0uljafbeglfBOQzAdLSEb9j2XirtGXoZ845elDFRkxiJdA5mo5uI79XaMHXa5qNm1b+OegHB3n+HizJ3TIymJUgqLfHdZeIUrTSnSv6Jw8fNqdzXqClGzYy3LW4cPQqH1q6ijumAvEnUkMzJgwC/XzMAqVxKWuqZIZRy9FFlPQZqlzwqkaMNkLJNKO8nY9lgiPtxtRKMwwujaoLYPA5Q9X0BUH7YBNBOr6ksjm+qtXBxGqVN4ssTauH9v1leiDtCH3PP+vyp/zqnIDOpLB+xpkZwmSFFUZ58Jr69Nx303KCu4u0nZ+fXWRAStqobOge3wOVrQwwZj27rVGkCrzEKVBCEvYcfG9ZK8QGtcfZcFaodg4aRbUUXVM/qLJfVWnwB97SdurRVAN4YM+PGySbj7qsvxzMx/Q3XIpsmwMkhFjelw/CZZHMoibw7ZsW3eQ7ht+GXY7voGms7hh+3LGFfsEAOYxv/DF9LwxWtVBh/dEx36p91ieiGvj7tmFDauLsRf/vSpSnLBZ6KM98arL+PeO27RgoosrzUYY0ZcgQdGDxWQbaLWRa8sVJX9WeG1wPdsGpY5kpWAkoPFZHvu4lA+Z1rgk6RO6Drng/jFmtmoDdhbFTHrWfVIdj19A+j+SlSpcRtR4bZ+etA9NznqAP1h8fy7K8uya/syeOPfJTjT16oGJYNhh73ZsD04Rrit4roYoVnH55jAPQVo+qRzvjkbf/r0E6HmSaaali5Mvq3DZj4LoG+/cihKnkwQnzBrFErlGXE3EDD7CtAUuWLpMZY2ysRbWzLwwI1DYLrvehzz0mKnj9qqflMLVvXtN7kgUDeG1cpteHbWF3DnlYPwo+9OBoui9u3cXbdFg6ZZ/rE/HcfdWTCPvxk3jmCmKHnLCqT1xwsB5rFaViLdWKw/ScnSkNeNn/zwRSx/4Vncd9ftSuFOFoQR4rYaM+IyPP7wv6EiYBXKIUGwp/dO3R3R3gkYsX+nBZsXpSLfSWu4vYiSUrw7p1+aFXXEtZGKVbkPYt930nCidI64shiPIcumPsBdFEuFDRSAZrVv698PxUKySrk7574qn7Wppx0b/1zXE1ht21WSD61TVlwufnQ8br9qsGJzjBiCW0iNGsntadcZhj2d2GoSX4M92zarStHif/4Mf/3PP8Oza7voCUvdOqF6KSv+4buvwbs7rULF0q3YcAQIOR6kDFTQJlQu+uCPltgx66uj8cCYYfjdplloFsF4E2r2pWtUq54DSdfjjUEngr4dFcVGZNx3A+4feyXe2zQTTd1IbnZ9nu768lyvK9H+7313qvj0yWMnuLIWJKmPYlGPIMPjwgOI7F8Gh8m+uelqPh+EMaRkjhwlzByl6zIE428ailfXzELDi5lo9l2IWpxK9CFv/c3NBmyaPwGFEixMQyGL+zppVadqtUDTFBVPZEp1IOfjZLGe6Xd2P5WMo8Vk2BCYdd0Vpcuixsm52rWr9/TdFoHdgMhb0GRwmFDppR/a8lm5J3dh1C3oo+65U2vKrH8O3wDuqqEvnddOS9UQFhsw4qNdJsz80rUS7JN6hOewnnsKzvrnyPi4/fprMT/HDs/uHSjduxML52bjjhs+35rQcNOo4RgzajhuHjEIG3LvR21oLsjWafIpC1SpFvY2cHN2XzI4Rf4zEyDO+GahIZiFpaav4fb/0YsoJv0raFc82NAs+UxffdD6ZG/xm/GrNTPw5euGwPLAWJzyaAtkGHYEXc0H+lHVomaQ4gfPzLwHt4ygxrdi3NClpChzYXJ7MMgrOy8Gm9Wizkoq3JHdOWoQVmfdh6rgXLGae+feYB/STaTS8gl+1cEc/HpDphRyVtVWWL19MgocaeK6IAVPnkvmISu2M6CYJFXZWWuS4PzhHhvqpfZguESr+h+gT3nNqCBAu00o35vzRNQB+pjfkVPnt/6jqwEZf+1sMOpZmygLsSFkQ8mih/DFa4Zg9KjhItqv3B0Xbl3pAM3zEKSZEkzVM1pbqk7hCClMSzEdAjTdJtPvuUYFB4MMYjI1mqDMjL/ebjm7aw9V5IFt87Fvlmh9/HjpNHzh2ivgSr4NFb65aJY6lLO0tN++WtC8DzNagplYNefragGa+w00iP+57wtOd31Mq5DJOKw8zoX4nW1mzP7Kv0pMYPTIYbhhJIu5KouaVrXeVxf6SN3wcSOomjdYgoKkSt4oSUqXI3fiTSjfQzaOBWdKqUNCLn5v+pPgZ5Hao0pK1YTaoB2/22LA7ieSsMqRiMJcVv+ejHwXLWn6maeKO4OMDbo9ljuSUOR6EN//bhqOFFukb5ktyAri3bVh717vb4A2oMJLGh9rHxKgs56JOkAfL5u7oC5g/qx3DReuDrjIzxPMxDGPGfNTbxXKHYX7xzCBpA/b37MnO32gyhcq740YKdlro6+8HDeNHIx7P3cFSp9ORX2QlKfZaA7MVBXQ/ZQCVVvHvvY9ExB40JKmi6MlkIkje43I/Np1+PrnB+GVFbPQuI9l1DLEJ9nX3+Pi0hy04eBuA6becx3uGz0Mv103Q0qk9f3cXY9JoRLq6crBDDQFZsqCQOnOxFtHYdxQVaSXIMr+CA9AszyaSgEXzvWoURg7fAhmfvnz+I+NBjSQZsj2LiV1UU+W6vr6O7cLg556ncLWwgqBDDSEMnGsxIBXCqdj+yJqdCRjqTMJSx30UZPjnCQ0utV5idjz9FSxuiv82cLSYEUdpT3d1wVYv4f+BWjhQHvNwoUmQH9UkrUs6gB9ypfzrfoyUxygw7bq64OLjwahGv12/QxMvuvK1sxCiuycDbS92xbTgubBwJSaxOp/pgrzoKV128jLsdT4FVT4cxR4UXsjSJ0V0p7Im1W60J0nb2//V+CsxKJoPQm3OmTG7oXjcc/If8H8tNtxtJTBO1q3fbdwacky0WKDKwG3jRyMZx65E5WlZIjwN8IFDu37US0+3AUwsKZSplWafO2+OeBuIfXW4Rgz7DLQkmZR13CyO1SfjsTNwwfjkbuvwessIRWyo17uV7W70kLpeM3n6kcFpOTv8zscD8yC5QI6Sxg+tKYPldjwq6J0/HDpVPieTUXpMykIPZ+Klwsfxu+3mnCkdI5Y3QR75WIht57n7Hsfq2vvf4AmB5pAzYzFI97cXcy0jipIHy+1PV4fzyAM05as4wRR6bUEaQN+uHgKvjF2JMYMo3WlElgIrtRrIFiL66NLH7VOlesI4ATg0aM0gB7O4NRQ3DhihGg0cEKPG3YFXCm34qNi+2fUXmAxXtaFkwnUCtDhsqD1CUpXB6vCc2Jl4PBeg2RU3nnV5dizaIKAKjPyCAhidctkJihQU0NvO809pFvlMjbVtdfx+pnmHbLg9ZXT8OC4UXjo5qvx66IZaNg3G83UMe8Fk+FcANb5PQIQ3UO0OhtYEV2v2RlUVdx/snzmZ9PuvhZjhw/GmOEMErJP1ULMvhGGjpZ6f77FWY0L9jddGsPFx02+s/kbo/HvRbNQv4/9lom6YI7UwWwIMYVe+ZQ7X3e3/7PtQ1xwaHlzYWPbcXGlq4PjRAVi1fctqPHbUe23o040PRRTRmpRCqgTmPkdBgTDswir3+VY4KEAP/JBQpWkUsPq4R4TDpfm/ijqpa+Oea1PxQFaB4fwPiqApkANJ4Idvmcm4f6bhovvmL5KRdFSwR/1vwJctT1muSxqOYyQidp5UvO9G+mfZNr3iCvkkeegytotIwdh7sSxeH+HCY2h3mWYdTuhWwG0Z21EQGOW34+WTce9o4fgwbHD8NNl0z6jmJRYwH5za8BQ3AfiF1cWk/gxRRWP23Ab6gn6oXTUBWfL83c2zcbMe6/DF0dehs2uh1AXysJpEfgKl+XWs3vU20qs0X02vLkpHQsn3Ya7riZz5wrpPxUHGIFxI4fiZm23o/Pb9UeCt+pf/XEIxl7JwOMwodbdc81gPDfzC3h/h0UsZx2wCF5c6Nr+7911n/97CmzbFs/25w8nELc/b1fPTcLdVwAd/hTvjvUKDagtsUo6+WGf/RVmWkfVgj7mtT6rSPhdNUz8NX0SXsijbPWkiCwtHINE3F9cPBWpd16Nm4Yr0fXRLCQrlhXThikjqqwvTlhleXUdUFR0LgXSLBxKa/qGEZfjjqsuxxPTvoD3d2ejIahX8I4GcJEhQKvMgt3zH8AXrhqEB28eBf9zaaihBR8id9cmok3K3cJMM9K+uGVXk5/jso76EsF0nAnMFtfCL1bNkMDcncMvE9A66uUOhe1LmhmDZZFxcXTX/wQvCbxKtRITjnqzRVVv2t2fB7nn7CehzY0arKq6c5ck7AwyNNQhLinuflg7kn3JrEKydK66Asb7rkPguUk4VpotDAlVOioa/RlNLDCD3H0BaE/kALrSQwtaB2gDDnutr/1mT/aoqAL0iVLbC/09qLsb7Bfb6wRoHhT2OSPbbzPqQxb8at10OBPH4q6rBuHG4awXOEKzlofjpuFUKRvWoZJGZ+tZZCw54UcNwg3/UzD0hlH0eQ7GQ+OGY6PjGzjKEkNBRuiZyKF0eKOxCHPL3BwwotZnx1bXA7j384Pwpc8Pxncy7sFvNqSjhoVM92WgYR+TTizyWWpsCLAzMzFoRUuIYGTCB9tMKJrzAB4YOww3jxqEp2fcg/IS7hAY9FRiTee3CCMBMnTvkPs7W5PpNaA+lIV3d5iwbd4DMN/3r3LfY1kmaxiBl0p47DuK7qtHyoWOHn4FxgwfJHGD+2+4AvbxY1H8RDIO7TGBbCDODeUKUovXxTZXzn0/BGgz6uh6cBNEIwPS7QGaz8vdll9GHaCPe7OXN0TIb3fuRo/EZIm1c3JrZkWTz4aWUhtafGbR6mgKWXHMbceuhQ9i+hevwq0jL1flsYYPxrjhdFkogFYWdEffs2SriVwlBfiVnOVXrhuCham34I1Vj6A2aJNsPrpVWnSAFt9g/1qWApZBgnCW+J4b/Aa8+FwipnzxGtwy/HKMv2kEnpx2F7xPJeONdRn4YJcRR9yzccSdgcMlmdi/Mx3/sW4KAs8k4dnZX0LC7deKAFPyzUOw1fkNHPeSc6t866d9WeJjp1pef4M0fdJ1dMPQNy3+XC7KRpwOmcTiPVxsxcuFM7Au5xuYl3wLHv7SaEy89Sp8/cbh+NoNw3D/jcNEO3zGl6+TYOpm13i8sfoRnHJb0ByyoTlAhUQjWnxGNFNKVQKDdAXF2liP5PUogK71GFHdTwBNS7rcE2WABnDZSV/W6mhYV5fKAKMVqbbsDOyolHDqVpxmSnLIjAPb07Fj3oMwf/0GfO1zg0RTYiy5zcMUz5nljLhF5sHqHBRKYq3D26+8Agk3j8TjU+/CT5dORUWpTdTWGJxTrApaogqUGcBRvspITqLO56a4UDoaAtSCJkc2HY0hG97fZsba7K/h4S9cJW6P20YOwr3XDUHK7aMw9e5rMe2e6zD5i9ch4bZr8bUbhuL2kZfjjpGXIfHWkViSeTfeLCKdjuW6Zmk83iw0CSNFAWM0xpXy0bKtCZzKj063jdoJmCSoSSu4ymdH+V4T3t06A2+tn4rfrJuKtzZMxXvbZokaXVUgG/X7stAUUgs5g3BKaMiMJp9iWnCu9n9fdu7b/v7/EgXoxYsXX36iLGd9HKAjN+BkWxqcDUbamZ7MCcd6eoySs84dxfMbQ1k44rbhlcIZKJp7P7416Xakf/V6JN1+FcbfMgoTbh4hXNsp/3Y1rA+OwfMZX4bn6VT8YfMsVPqsOB2kUJGyJnl+ZvSpqLyinSkqVeTusTtQ5MJE9w6ZFTWiyaDcGKyFuH9XOoLPp2Kp6SuYmzAOM750DVLuvBKJt41C8h1X4eEvfQ72CeMElANPJ+HdbQZISauQVZgL9aQI0sfNxY6JI8LpjoYPmveYIf5z3mfrwf6QggJkqGRAMR4YMDaiRQKoJrQETWjh/3SDSU3F2VLPke3GOUlKHxkxfE4WDncHHENk4tSF2ihtDFIStBV4q9Tq9s+VC5PfbzvUoqL7+kmN45Ehj931Z/Re7x+AVq4T5YOu9BpjwIJevPjyk/45m8OX+dP/IBC9QRPme9W2xRS4r/bbcKTEjvd22vH7rVa8tcUiOsTle2046aXokFVkPZnNNvDun4DFTDyD7CIYyKwq5f1acWCvHQd223Fwrx3HSiyoKKWP2SIW5cC81zCPEc2tQTCWXZFwmDXQ7aVKoOzsZPHkNep+bf0xMtd94WO1vwCaIkmZqPJYUeE14lDUXRwC0HM3xQE6FgakAU3B2WhmWShd15fWNcGYbIygRdKLmwhsUtRXFQi48EEfvXtW1ptyu9SRqSH+W9IBGWxTZcOaaWUKP5qgEb1rjcXfpuuEJct4sEIN/6ebR1gwlLttd3BnoVvdtLz1QxhGosdB14lFnYe7MQH6WGvv/gFopQcdQwCtXBzZRXGAjo0BWa9NJroA1Jad1qY6lLh+pmR5qe2o8mnHIoCc75rohlEHQVpLURY3AV0FdAcwlZpAQ7dNbPTN+e6pX9+X2IKynFUVdcUW4jXQFSKHnrjCz3ZwvejuEqNUpGGgVRJMJJCs/Of9ei896l8zGnwm1LqZ4Rc5FkfMAbQECUutq+IAHRsgoLLwWMyVGrr6Qd1e+iNN4o9Un6Ge88CM5Ovbc7VFp3WssuIICjpo8z36XuuCqhJ17AFGdMcL4xf1IdbB1HcXJpwmQ8hjQ1OxHU3FNpyWw4rTe61o3mNDi37steFMsR0tbpYiUyn/ktnJQLJ2xF57m1Bfqih2zPKLFM0u5gCaBOzjPvvyOEBHd8JSszloAAAgAElEQVTpE0IFmNR2TqqeaME+BnzaPmPQAlKxcc36dfX0kVvr+lAGKHXKnQADYjxUqjKDmrQGMwR8mKTS/t57+hsX9+dUNRlxbZRY0LzbipZtdrRszsKZDVn4uCgLZ4rs7Y4stBRlo6WIj+o4sz4bH/PYlI2Pt2ThzHY7WvbaBLSbfCqwHFttGB2ALvdYo8+DPlZqe+FimwRq0iuLjPxUpZ+gaEqK9qa2h/p7rGauvqNKwyvrTek/cAtJC0OnTSlfn6KwEVTa/qf/VIGm+Pwkys7tO4FIbePlUQI7SlxdVWHRmRY6UFH0R23tub1v2+Kr96kBoXyNuvU0sIBatY1itBAEVBvynhTbQ7l2FFWwnroPGu9XBJ5at++qvwjmDDa2ukm0YJcO+m3Br4HQRoqip6xYxdYgU6OWixldXj4zWjw2BaTb7DizKQst6+04sy4LH6/Nxsdr5+DjtTn4RDs+XZODT9fMwSfyOt9rf+TI/+p9Ps/GGQL7hiy0bLGhebdNfotgzevhdSifdf+2Y9s8NqHGq1vO/VM0lsHCg545r76xJW9kVDMJj3lsz1xsvMo2UNMtMAXICgw08OOg5+QO0YVAkFSVIAh+tF6bSq1o9ljRXGxVA3anDc07bGjeZkXzNj52PFq22XBmhx0te6xo3mtDs9uKZi+DOAzeqMVB394TUJSFYhGqmFCiRJtZf71/J0L/WkvcmuvVxNkuBGkl8E63DtuItDQW32XJJMkS1PzwrUwOFkXQXDyksomfXspftQnFS5u2+rrbdiD9e6+96UeOQSa7tAkVSUAvxPaxyDhs2mpF83obPl5HQCawRuKgtW1D0xa6RtT4bYyS66M9QFd7dWDWH3XADt8j/dvV4kIxoc6dgSPevFdjQYvjohNLoi+TIN0+mq2e0zIxoyZowym/Hcc8Jny014gDe6046TajqcSiAHaHGc2brWjZaMOZIk4IOz5eS0slS7NQlGVC66T98SmtlHU5+LgoG2fWZ6Flkx3N263K/+du051QVmQGakNUf1O+P2Xt9WZCD9zPqsQZtWiq+6YfmpYw70kFSJuFG2xEnd+MSp8Fx9wmHCw24sM9RuzfY0Z5sV2446dK7agJ2JVOhSy0BHkGITXAa+ceil1w5m5Pbw/VrwQnLu4tbjuad1hxepNFLGZlLUcCmDuek9Z500YLmndalTUdBXZHK0D7TegvgK7ymFDpMaPWk4FjZXkvRx+gy7IX1WkZZ7E8gHtzbSpRgyI2tMQoZ0nLVMlEHtxrxqurZ8H77CTseCwBux57CD/8Thr2F1nQSJ9ckT5Qs9tZKtwezsUna3M7AHJ7cNafi1VDC4dbz3VZsgWVwU6LhIO9xAa1dTSgNpSJGnGF6Nv7gQu6vekfZSlSqc6gDiZ0iNXMzEMzCLrv7TDjtTWz8OJ3p8DzVCp2LkrG5oVJ2LAgGesXpGLTwiTsWJSIkm8nYd8Lk/DzVTPxznYzTnlYessuVcbpDlJJJG2Wde+us//6Qy1aOjiTamhCi9uKls12sZqVK0O5LeiaiIz1nAMaGer8tKS1395qR3OpUiHsz/ZrA2ijaDQTPKnXHLEgoTBELKjwWlHjzsTRUmf05UZP+ecsvJgqqogbQawntXVmJ9cFbaIG9vrqmdj+2ESwhtpqxwTsfTwVvy00o7IoF81FLny8NhefrlEHAVm2krSIxX83V95vBWDx+3GrqR0CygqYz6yjb1BZ3X9cQ7+gep0DvmWDHS10lXhYBcOsqE7cpuu0qB7RjvoPOCI1IXU+rmRVhmgFZ6F8twmvrpgGz1NJWD8/AYXOBCyXWngssTQJ+Y7JWOacqh2sJp0iZZcKcyeiMPchFM2biOInE/BSwTR8sMOIKp+eWRj7lES2B+MV9MVTMKrFZ0LzTks7I4HgnI0/rskG/cuRAmj6sFvPr7lSzhRlo6mEglb9PO40zW3W0aQ2RuQB2ohKSVKxiebHEe+cXW+8EWXB/pP+OfPqApaLpqJKe4Bmei31hA/sscL3bApWOJOQ70jFKlcSfvD8wzghVu5csRgIpPpBQOZA5WRQE0JNChV4abNiaGm0HTzPXPxxzRztPOq76n++xs/SCp+rrOqtNjR77eJyod9RDwxGChBj57x0YTClmMEvo1Tk+Gi3GT/MfxgbH03BSkcCVIFSVpNmZWl1FDhTUOBkFekk7TEVBU4eKch3JGO5Ixn5rlQsZb283ERsmv8QvvdCGt7ZYUJVIAuNrbRE7qZ0d0o/A043iy9jEq0ALfKlJrSUmtG81Spj5lPZvekBwMj5nznm2wwQfRGgoTIHjXuVal9/jqNWC9rX3oKOnA+a/ucKArSHAG3EoZKcJVENEPLHj/mdlpqA/W/92fCR/C368mql6gPLO9FnmY3d356MfEciljgnodCZiu8/9zBq16nt3CcETloNawnC2cra1QYqLV916JPjXI+6P/r8n6F1LlbJDiuaSqknQboZt+EXY5CQgVqVmEItCN5ri0hzGsWV8YvVM7Hl0WSpfbdcADcNBU79UADcBs4EaP0gYPPQgZqAzmOSVn06GYVzJ6JoQSp+VDAbR912NISYkclkH+X/5wIRybHY03MrgGbgNFPps9CCLrUIQP9xzVz8SdgYXYGnDqIX+KhZyO2NEcZZ6E6hy46//Qmt9aIsnC7pf949mTuyy/RqHGg31ezCFxQ821ViQKW4UYyochtYk/DbUQfow17H/60O2P/Y08E0ED7HACG53YdLzHA/lYrC3CTku1KwzJGCTQtTcWBNFj5ZR0Cl6+ECB7dubVzAI90onABNG61oLrGISL1K2LjYAFoF6lR2m8a2EGqcDbSay55NwWrHeBSIBdwGtO1Bt7fPCx0sdJqKQoK8gy6QFKxyTIT724l4ZxsZEgRpRWNrY9NEH6hbLWjdxVFqRpO4OAiWNBTa/MMSjL6AcXeWW6QLgJZd4lruBNUYpauO1Lsmr2I69ef87wqgayIO0EZUeY2oZNFYt2NR1AG63J1zX1WZrak/Gz6Sv8VtEQNDFaVW7PvuFKxwJMo2ucAxEQWOBJQ8ORmV653ihviE1kIR2Rn9C9Ic/LROmjfY0LyXWgq0MKMPEuHtF6YY20TnQW1V6WNV8YDfbzFgx2MTpUL0UlcaClwpKBTXRd9BuhWgHakokIMgTbBOxtYFE/DrolmoDWRpLqXYWRDJdZYFQ2iHJqUDTaomg8satY4usj9pYycsY1YDaP1cypKeI79BA0LodlstEtiOjkaHGQ1+MiraLOhIAjQzCSs99EObUem1fnbIlzc/6gD9kXfB/64qy64P7+SMLtiQSvfva2dhtSsRy1yTxDdZ4ExEoSMBux9Pw4miXHFrfLxWJ/r3L0DrUXih8jE9t5dKZAOjr+jaIECr6uFM+KkKZuM362dj64KHUCAup6lY4pqK5a5kFDoTO7grems5659vD9D683znZCx1TROQ3pg3Hq+vegQ1gTlKklXTr4h2m7J9FNVO4+lrNDvy6Zt2WGS3RfqmHvPQQbXPjwTpdgdBmgeNB1rwtJwjWS393O1uRr1PB2fqcPB55FwcBGi6PSq8Fpz02v920JdnjTpAf1g2/85qf07FuRsquoDbq2sLmlC+14ydixJkwi9zpWKZK1nzT6ZhTV4S3liegaYNBGVaz5GjLHU7edZloXmDFc27qEhGH7TKEuzVfQ4Ii1srWBvMQPW+LPx6oxEb509sBeN8ZyryaUGLL7mjP1kH3N4+6qDc/pHnWO5KQ76LbJAkrM8bj9fWZKCawUNJTIqF8X12JiGDx9T1lqQp7rQkUcWqKJwakHY7xnq6K9TAWTIJ12UJy6h5uw1NblXlWwKqrZof/d1OpjYNDhFKiqwPWqRGvUac9Npw3GP/+CN3bkLUAfqI23ljZVnW+/Tb8hCtBOmQgZB9pW9R2yLMtUErflr4CFY6CARpWO5KkiOfNC3XJCxzpmDLwol4e2UmWsSSJq1OUYtoOciAX6eCg2e9rr/Px07bw1YrpN1neD6duaEWAmWtNG9idqJVcUv9HPS6Yl1/T4DI/h7dNk1SScWEt7cbhce83EmgTEOhKwUrnQnigmLgVgUGw+vi0EF6hSMJK5wJ4GItLhVnEoryJuI3G1glnPxepfimgpmRbZPuF+E2gBYxJJEGNaBOE+Jv8lvR4rVJRiG1MyTVe4NdpWi3pntz/NLg6Hx0tUNUY5G6HS0b7Tiz1Y4zO7PQUmIX6VFa83XCtGHwMloBbLMAtK5i1z8WtAmnvGYc89jq398590tRB2hmypzyWl4mD5fk+LpQBmr2kTfKARPbIE1GAAcSs8aafAqsD5ZYsGVRmgSHCl2c8G2WGQOFS/LSxKLevCARry6egQoJFDIgQr8wt3cUnLFL8JDgSoaHCiZmS3RbAXPHbWHra8KJbmNxkB6lBwTPrMtGywYbWkj6L9FAYUBYwRcGWGqCmyUAerzEij1PkUnTnp2h901b//TWWu7d59XvKKYI/dPJ2PxYMj7YyWukQJUFdUGW5+L96gv/hd179yDc+/N1jE0oqVChZPoMaHKbJR2bvPqWzTac2ZitHUpXQ/2fheaNttaD2a1nKJC0LQtndlKawC4qeHRFicXeoQhElNuBhWK9Rk1mlI8m1LgjSbNjFqEN1d50HPNaKt7e47oj6gBdHlo8pNKfvY/FTdnxBGhmuClKVO8HVDgH5/nO1QrQ1Crw0/q34o11j2CVc2IrR7ZtEjMQpVwdtOCWO5OxwjkRux5PxatLZ+GjtdmoX+/Ax+sc+KPwTpmYwoPWhw7IWa3JAjo/Wr2vgjcM4KggTi5I3yNwN6+3o3mzDU07qNGhrKDoBFz6vy9ZXKDOb8GPl05FIfnKrilQi2bfLeW2fu3DuRxJ8D+XipMeTdI1wG29kgk439iL7vvUi+FhlKzUllKOK3U0ey3ofJz2mqAfTaUmSSFvJo1PxP4578nQUGXYlFul/8dKV+3JYtZSKLZE+Z8VQEcwk1DSvK2o8qbjuNfyhwNl37ou6gAdCqUPOul37qyTyDbpRyTNU9JQuTy6arjYeY2Rb2XpU0muyp8l1K1CRyIKxHruOHmZ9LDCkYoVYslNwlJnGpY4CdwJ2LIwCcFnJuONZek4sNKKyjU5aFg7F81FDnyyzoFPaWEz01AOcqcVb5ogfKaIVnObDgezBQWUt1vRVKwmDHUV2G6iaBdDFlqk+lLYNAED3t48G0XzErHUyWAgWTVMNOkvq7lj/3cG9eXOyZJR+vqah1G9j0wa6l8QpGN850i3GA2SVmuf80BXnKNxpQo7NArnW8m6qsxNJgfpB+saKk1p5VKJDVBuPx5bRfr7DaDJ4LCg0pOJox7rT98MPTYs6gDNCzjocz1VFZyDRlEVo8uAW3Cl1du+wWLvOfUcFPDRPXNorxVbFibK9vXsychgYZokqqxiNqEjFSsdKoWYr9M3ne9MxArnBBTNS8DOR5PgfTIV33v+Ybzywiz8ckk6fp1vxJuFJry90oDKDRbx24m6Ha1jBvwYyGFwhRaLT88O5LZU8W6VDnK6ZI3FXluGf4KSrlT6jKK55Tunyq6Gu5jOfRO1/x2TsTw3BdsfS0R5sUplpuJhrLv29LFDgBbgpZ5LKFMWFiV/qxQU9edqx8Z50naQNcKdsio+S6AOf//r13mhjwLQHkMnF0ckLWhFsavwmHHYkx2idyEmAPpwYH7WqcDcfzSw1p1QvuwS3CFIX2jj9s/3uJhwS8p6fmb8bmM6VjMoKJlona2nNBSK5UzrjVZckmy7aVETIAjSS4WSNwkFdIG4UiEsA41Lu0JcIklY6UrFetd4/HLldDT6s9BEzQQfNZw1/6D47Q1g2Sq2gexEJBDICaCAOpZ8nBHrp6AFv92YgdWuBOQ7aTlz90JOOv3QnfsmOv8XMj2cqeGOZLy6agYagkrutKPfNwaBS3Zi+nXpC4qud96usnirvouaJ3pGp9p1toF1rC5IdaWqxFWtRq+LtItDVWux4KTHiqOeOUVYvPjymADoQ6XfmloRmPvnRv9MVcqeCQYCzlEOEvQgiCYFLwMshmnCSwXTUZDbHQikiWuDbg7S7vSDvmj6RwkaCjwmYYVjElY4p6DQoR+T5TUC/FLnFOTnJsL/fBoqAxTjSddYGDp/tQ2odQGktseB4DbSJ35vHrnFJlAw4KbuscJnhe/5qchnNp+TbUomRXeLZ3QAmmnj+WSVONKw+4kUlQ4uQbLYHvdcQNp8xQRmnatMt4dKeGn/qFwY7d0Zqr/U93SgVi6T6C5OXEj0xcQiIv1M7VbATA50ZIOESozJiAq38bNyd070k1T01WH/bucXK31Z1aeDs6UOnMpsU40VMQurB+B7vt/mIiKlfwIZqA6ZEXhhGpYzY7AH2+jlrgvzgzJ1eHluMvY8kSR0nKYgKUgc5LHttzxfW/blffo/pUai3yrB2qagBe/vNIosaKxYy11dh+JFc+FOwmpnAv5jo1pkYn/n2JvFcyB9VrU/LXxKBisNaAXKOsUuklocdG2ouoSG//7IM/ebOj5G/fHA3rz/t6Isu7wxkCENI4wIWcliG3QEoP1WqQB9ymeA+9tqu0oruasJGY7XRF3NkYatCybicDGrsgwMSmJfAPh831UArSZXs58az3a8suJhrKAyXRfB2nD0QzjOQfcGz0O/eGFuAr6/eDLqyGa6BIK45+vTaLwvuRh+CkYZ0OjLQK0nHTWeTEgCiZbld7bAUfgyCyu99G8bUOE2NX1U4vw/UQdm/QKOlS648qQv+5V64RWTskZfKbdRsQ3QVCU7LQBtwDFPJnYt0jIGL9A6Pv+kJ/BT2nISNsxLwIc7M5Xwjo/tFONtFYYdS3eTVjF/1PaalWsqfVki7ypsGlksI7dgnr/PuneftPrDHanih961KAHHSxTlrLt7jb8eGYuc4MxyczS6KBPc4J2FGvdsAWiCZmW7I1IgXUmRJK8RxzxZJ97dnXebjo9Rf3xj8eLBp3w5xcxaIiuihQ0kil+xDToNrENHiydoxBF3JrYvTAR1F1qTEcIejNK41I7JWJdHdbRMNIaUzzkO0AyMsnpNJg6VZGHrY8miJtcXAI30dzlOJP7gUH7o9XkP4f0dNEzosooMEMXPe3a7KsuZryv/c13AjOpSk2hisLoJ2UAKlKmVofQyIgLSAtBmHCud+/v9Hue/Rh2Y21/AsTLHkjop2mmWgp0NUsn37MaMpQFGgGaCTWPQhEPFmdi8IBnLGMSLGFNAWdBcBNa4kvD7rRSeJ0Bf4j5ocudDBOjZYHLKuzvMWDOPwcHurddIg29Pz6+Sl5h+PhmrHOPx66KZaAyy2k1sj/2L6froUqKRxUSzSp8NRz12HNhrwYe7rSjfa8NxtxVVHgtqPUxciSBAUyiJtS/duYFjGxcMbY+PUX9+0Df3m7Vl1v9uDmSiTqtyrTSKY3igahY0AfpgcSY2LkiWhIjIAjSt9EkiuvS7LSwKQFrTJQ7QUhFEWdC0gn69Pl3L2owdSl3XgE1ePHnZKVhGpknuBLy84hHUB8nOieFxP0CvjVxrJseI9ozEboyoD9lwsjQb72w34aUVM+F9dgp2PpGKLY8mSk7D9kXJKHlmMn64bDp+uyETh4rtqPRaJJhX485AtScDFbR8daF9qcp9YX5p+rvpSvnIPacw6oDc+QIOePMeqCnLbmoJZKCGlSeEXxzbPOjTAd3FYRIXx5ZHUxQNThTSImG9KRcHa+OtzUvC29uVi4OshUvZxUFeN6lcKnPNitdWz5BkoVYfb4xa0rw+ltciSJPRwdqGP1g6DXVCn4wDdLgXKRWrULrg9UELTvmy8NsNs+B7Jgkb8h4Snnx+Lt1NDPZzB0YaZKpQNSkVvNY5HnufTMIbq6fjSLEFVRpQK5nQvlvWNW4Dhfr//p4nx9IZH6P+/zvuhTedKss92OzPRK1YENy6DxSANuK414Cdj7OQ6CRJMunaYuoraLcFCYvmJeGDXUacDhlxWoKpse2vD/dk63i+9gBtwc8Lqb0ca5zns/teAFpS/ZlFSoCeIBXCWTKt4/3FwToc7dHkz5BiGnXBLBwozkbwhakochGYJ0AFlJnZO0XLR1Clzegm4464NV6QS6B+CKXPpOHdHVZUeu2oc2ei1p3R52rfTFQ54c76ZP9eZ2LUAbnzBfyudMGVJ8ocr7KqMCUYSRiPdboR6/hJkDBgwEm/ASVP6Svv2ZMxPICtreqONGyen4jDxaY4zU62220AzWy8VwqmDjCAZuwiTQA6+Hyq1LQMByDFz9FxYSN97nTQig92WbHnSdahVO5CFvpd5posGafUR1GxizbNFv5PFxQ/s8zFGNNkFOQmY8eiZLy1yYBqr0XSwfscOPSaccTrOPzhXtctnfEx6v8D/3LZsdLcIvpTJSV0AFiFDUFScshbzUBVyITAdx/WVuJI6T0QoKktkSqZZye81G+IJ6q0ujhEpMeKV2hBk44YMVdTeBbgNgtapXwXOmhBp6E27uKIyA6Cht/+XRbsWjQRyx2sdkRQpk47HydrxX6VEcRM3zbLWVnT/F+xtPidKVjuSML2Ryfi95szUOm19dmCJmPkUKnj5zRWow7IXV3AYV+uq6HM8k8BaRFPie1te3uArttnxs9WZmCF1B6MFEAzHVwVIi37zjRU+21oClDQ/NIOErYHaFrQv1g1QybPwPFBKxcHg4Q/XDIV9XGADj9AB0045rHD81QSCnIfksIJ1L+hPoskCjlSsNKRrKkdUoqBkgwqkWilIxErmfQksgxJkgBFyeCleazgnojdj0/EBztNqPKaUN0aJOyNbrT6LDU4DrjnbowZDY7OIF1e6kiq9md92uS3gBQ2ZojF8jaNymOiJyCWmwlvbszAKmcCChzsuEkijqSCQBRGCg9oc8XnoPhZ4SM4HWBST4awXpQWRcctXSy3XbivjRoOkmQQMmssjtj3QRc4VJCQiy7BoNAxES8VThcXX7jb51I7H/Mp6oKq5BnnCLNLf1Y4EyudiZIUxN2V8itzXqpEJnLSlS4OrWhdG0dx1dX85ee0XATNN03XJV0llHk47rEJDa+G2YBeyobq/OmOrA6COHU9KrwGnCo1oNpjERrfEa/t7+97XbmdcTFm/j9QknvrqbK5h5oCrCyRLskqsTywqLFMa1/nUR6k3OijTJBgFedIADTPSw50It7aYhIFPQZVORDjAK2Cyk1BE97ZZsLaeSqrMzy+//C4NM66FgFoAgHVDCdhpXMC/r2I4z5Os+vrvOeCTVpdE/VyAkYc2GXG1oWsE5oi6f/hlgAoypuAtzaRdmeGsDFEV8ModLyufNMC0KUKoJUIkxFHS20t7xa7xscMIHe+kPIteSNP+Of/lKtdg5/Wc2yrejGg2SgcZFpvBlT6c+B/jtH4JM165urKI0WOsyZor+lfBOg07Hw8BYfdWVIqianNpJhFVwUs+pZ7vaS6q8l4qNiGrY8mDYBMQlrQLH+VhmWOVBTlPYT3tjNhgrTJ6LfpQL0GMZikjqHS1RDruWC6qhPqSo2IPgt1X0IvTMYJlqzS3Bw17nTUuDO79E1TdKnCyxJXBtTL5zJw3G3bv3/XnDGdcTGm/j8WnLe8JkgeNP3Pse2D5kBQ8oSsp2hAY8iOX62bJW4OKUQq4EyA1rWg+2qJpYmf7CfLpkmkX7jiIvAe+4tZZCe76gcu6LSYKv1ZKH1WbT37vij2tc+6/36rj9yhaljuXDQRR91mST6KbHtd3OAvri4NoDlHmQm464kULHMoV0YkxgT50tw9s8YkZUMJvNWedE1oqaOLg+niTEqp8ljF4q73zBIQP+rN+dE7O3KHxxQgd76Yw2XzMqoD9v/SBehjeaByIBCgKU1IS7Y5YBQC+7bHOeGUFoSykJRPOhwDg+Wb3t+egWah+FnQ6LeLyEus7zYi2Y+yUDJVN2AAM1EbglmSkUeFuHC0eaTOka8r7dEllpuM0HenahS72N45RrIvw3lujgemcO/fnoG1eROxlEyNXu9au19g25+LNDzGn35TNFMSWGgdqwzDsxNYmNhC67rKY0e124YabwaOl2aj3JOX3xkPY+7/Q6Xz7670W6uoCa1SmGN5tVdC/cxKEoAOMsnGjh8Vks1BcKAftM0f3b5De/5cBSbk845klH1nKqp8VrQEZqNRtEuyQVcLBV/CObgH0rnUTkYJvtOCZru8t8OMdfPIZeUEY8o3+4LBn9hJ/2aVd15PoWMSVjkS8cZ6AxpCKrA1kNo/9q5VGU0sosH2/M36GQKey1yq7FnP517PwJnnW+acDGYbkoNPutwprxknSxko7IrNQQs6XcC50p2FKq8BR0vn/GV/yfxZMQfInS/onR25/0+F3/ZaM1O9Nf9u7A2Ac4Bh0ILyYjt2PTYBy50JWJJHIRwWiu0ti0MH5hRJW6ao+/r5yXhva4ZkDhKUVLvEthuo//tOtUuVzwzPM6oGZCGTD1zkvSoxKwXYPZ98kZjQPCeLNjAxotAxGTsfS8ChEpa8iivZ9XXM6G5HWtB1oSwpJ1boSEIkAVr1YxK+v3gKTnpt4uLojslR6aGsaIb4p08J8yMdpzzW4/v3uO7ojIcx9z85gCd8c9fV++0DE6ADRtQEbfjl2plY7ZyokeE5CXsLCMq64qBiAGlV7nj8OP8R1ARssm3r6yC+2L/PQBsZEWu1moSq3mMbpSpSoNub8y4TqhZV7JLw8ooZMm7oqmIdyYu9fyJ5fzpAsy3rgna8VDhNqHC0cnvTP735rKK/JmHfd9JwwkP1Owof0RfdNdWO7zOASOEl+qSPuO0/I0ki5gC5qwsqL5uXUVU2579iPUjY9SBjsDAdp/x2hF6YilUSmGB+vyK997zTUyTDaYmLdfWSUPJkIo6W2OIWVk9dOUETTnitkpjAtl/iehjLXckSydd5rz3vi94urj37PAWSeC3bH03AR8XZwt6gXkTb7igO1F3PsfXBJdYAACAASURBVPO1iyIYsB2pDPjzldOFYy4gGiEftJw7NwE/WDIZp7wM/jEISPdGVy4OBg1ZqcWIardJLO5yt3NxV1gYk699WDz/zorA3JNcCS+sg87XgZF8n4GJWVIj71BJNjxPp0oWUu/BIA0FTF5wJko66fs7uPW1oTFuXfVoTCifvBVvbpiFda6JyHfS/0iXh+LC9r4/ega6vTkvJzV3Rr9YNR11wRwwQYuxjEs54Bue+a4keNmWDSEb3lg7Aysd4yMaf6ARwKD0z5Y/LEkqNR5yognEXQE0A4cEcAvq3AYc9+b86f0S15SYBOOuLqo8lDeywp/1kwHL7fUb0OinmL4ZB3absfeJRBRI0LDnk5zBIwYadz46Hm9vSZf0X71idXgGcSQXqeifmzTNpoAVlX4bvvddBuGUv5d+6N6AaEQ/m5uM4qdScNSjii40+6hiF/dB9318twdoK/7AxCXXQ5oIUs/nYO/6niyORLxRRLeFGbXu2VAFZs8GaK0wLCo9NjS4M3HMnX3g/WLnuK6wMGZfO1KW80xtQM+QMwvPWG39BsIAtqjswgCrlFtwYI8NvueYKZaE/NwU0ZvVhVjILuA2l4BMi4piLKTs0HLe+2Qy3t1GdoJVq5cWfeDr++Tpr3tQafhcJMuLzdjzuGr7JbIrScYK0VXQeLGS+Rlpdoce9FUAQb3hLQsT8O52ZryZFBOHEgcy5iPXRrQqyfrh7zAdWpgO1NIW9gsf1cG5xh0sqxwxCUgZS6zZx2vjzlYTNRPVSe36e+p+ivjn2PeaGmbQhMPubGxblCy6zm0sHq3ve83q4TjRx4oe0+D/k7BhQTLe3WlDVakJtKCZUagnrbTPJhSaHaunaFKlR91230uxVkHlfCvDgWLnxOoy65k6LWGF+fQs6tgQGFhZVuRhckAzovvq6nRsezRRBFpUei8Vs5LEN0oKWKEjWbQCNixMwY/yp+NQiV3TxubE4MS51IX5ewNcCqAJKHUhM97cnI718xIUrc1JURzKTZIhQ846dYB7GyPorSWmFmFaZYXOJKzNS8Cv1j4iY6M/KZIcR0xw4jwSxkiQLrnZSsdEeMMaQAtoG9EgTCrOO6omZgpAi7yBXwN4KaxhQoufRVd70z+R+yzbkzsoFp5mAdjagB3fXzpdchNoBAm1UeYbszjZ7zrg9qRPldyCsq41SVKeIzcNvuem4JibNQzpvjCgzm1ErbtzkopK/1bWtYUC/f8sd2cvOB8extz7B725N1SUZb2jBE/SweolbPD6gVhQU6oFc0CacWSvCb9YPQu+56dg66JkrF+QiKIFCdj+WAJ8TyfitcIpKN/JQZUtAQ5FtufEiAN076x3HaBZId6AymC2bD/X502QFHACstqxqMc2y6onk7S3n1EylUtd00AVtHXOB/HKypmo9tvRSHdYxC1KBYa0gqtDVtSGuCPNxBkK2HNchcyoCWZLBuYprx0nPTYJXFX7bGggx15AvM03flrGM0Fb6XBzXiqrOjZiRq0ALW4uBl1NkkK/ft5E0d3mLlXJi1Ivp7d9qUBddrwuJebPccQaob8qyhBFuypPulTnrva0V7drD9R6JqERxz32xoPFc+6POQA+3wWx0veRMueW6qAdTcEZaAzNRl3IJFuy/hrQ4f2dTDQFZ8kWsj5oR6U/G0fdVny0x4IDuy04UmJBpY9WjQUU/OHE4XZUigKI9RIH6N73h170gQlFZlQFcvDG2tlYP586HarMlGgBU9lMz+qLQJRfTeYp4rpa5UrATwumo8qfpRX7jZwl2VV71QUZG5kt46vOx7FnxevrMvC9pY/A+3Qqip9IxN7HE+TR83QK9i2ejF+sfgQf7DRKQVUWtBWLX4KZzKRVWjB0l8QK64o0Rbo4uENoCqSjxT8btX4Lvr90qiSTKF1nMqsmayqTurujp2Ct5GFJ22OKN9Ulvc9OxpFiK2o9zBBknUIzugdoxeIgH/pQqeOX5bsfu+Z8eBiT7+/3zp9VEXD8hcDWEKKsplKO62rgxfprtF7qmNnEVd1vQIufFky6OgJME+dKTyuF/kGLDDAF0KqGGl/noIv1+4yt6+OixkVO7UBoSdUGsvCbjQZsX8hSRxMlu7B3waCeTuKOn2OixMZ5D+G11TNxyk9KHQGt/6xn1S90b6Sjzm/A+1vTse+FyVi/gLKsSUqCk4FUcfvQ9cNCtqlYIrKcSdg4fyICzybjD5szUOHLFtcbLWi2r1jSMeR+oy5Os5/WPWWLObdmyC6AFbp3P56g9TvBlSBNP3JvAscqliC7L9ckCeRvXTgBb20xC++ZwUG6Nyq8NtS4qWzX3nJWzyVRRdwgRhz25i6NSfDtyUW9X/zouAq/4yOCF7epXBFbBjBPlNdP/12z5q8jaKvXGFSkJaUBiZ8ATX+z0rTV5UQv9ZTu3oG/Ag+2KYFQbXv5mCnBMQbn3KRAOhOV4mAELOdW4HckYcfjKXhrYwYa2LcBA2qDDMD184IbNKGilBVnpmLDvInId2hbdIeSZqWl3/FQ2Y5CT6SgfW4iiuaR6zsVh912SQIRnzZdHjFUWZ5ccuJEXZDuHJaFmy0FhSnC9oetBmxdOFFiDwRoCvMrkO64oLb23VnjQgE0XWTU29mQNx5vrJuFE6XZQqlj8km1JKpkoc5NNsfZWhxMYKmg+8Nr+mN5seP/9gQLY/Iz7+zIveJ4qWMnV2iuilwNFQ2pnwd2mHyE3HoJyGrbLzI8OIhYQYNATQDigG//GT3Szu2j8v3175a4d6AYa9dGkO5opapdiipycMRjF3fDpnnjsYLCStTwJoNGJECTZftLtscKqbytTWCN8cEAowQahQ2irDCpuOFShQIk6OhIwrq8iXhxyTTQemsI2UXMSRaJIPUiIjuOqYdMw4ZWM9uholQFy5jhyiC1siDJDee9KuBRSTzqOV9fIQsYA6pKU4bl1lY7HkLZc2kod8+V3V6zn7owHds5muNG5hD94xpLhddGDGFb1AVt+O3GDGHQcLdANwXbgjsc1Q6q3+XepcKKCiizCDHdYiq4T/2UJGyaPwGvr5mFk17qaTAjkOwNBgGZPcg6hXx+tgUtFrbHhKOenDfLi/Ouj0nw7elFHSrNNVb7LX/llqUhNEvbWkV2YEdzcMV/O7Igz10LgUss66ARVQE73t5ulooYG+YnYmUuXR8EXEb7lY+y0DURBUxwcSUin7XqXPRBqkATP6OsTt3aTEZBbiLW5iWi7LlJ+N2WTBUM5CLfrywHbvEZsyFAz0ZdwIzX11A0iPX4lGh991biua1JghfP84P8GagKUJd8ttrhSrtGtv/6Mj9ESMufiYpSmxS82PNtRX0l8MrBoJ9L1ShkcVhV4Vv1b75QYZW1zWSnnYuS8JuNGWBQVRfcb0+lO/dzA056TDjgcRWwFmtPsTAmP3ew2HH78TLHEXENBGZe8sL0fRmg8e/SotQDzSoAW+83ojaYjRP+OXh7hwk/zp+KXY8nYY1LsxpzKQWqRe4dk5DvUL7Lpc5pWOpkGv5kBXiORKx2JWDbolS8uPhh/G5rJip8FhG2kmrSsjvqP/CiFakvRmRZMCC95wm6cxI1wXpayecG4m7fl2K8ydiyYAI+2q30qxlf4YIQy2OMO9MGr+ImnyzNxv49WXip4GFseyxRXF0M9jHot8Q1GZRYWOJiHzO4mypFZrmb2LQwCT/Ofxgf7LKhwpslqdrkO9NyPjcot71PF8cRb87HH3icaTEJur25qPJQ+pDDZQt31QWz0OzjVk0F0mJ5IMSvrf+AqLdtraiaBBJWZE+HaF8IbYyvWSWIeNRtwx+2ZODlwmkoe34qdj05GVsWpmLjvFSsz+ORjI3zE7FlwURJgCl7NlVcJW9tNuFYiR11rAgUykQjfZ/iHlPApeIM/dM2BGj+tsRugia8t8OEdfPCExQlVZAlulY7H8JvN8xGY4jJLGpB6G1/9Nfn2fYNPpNwk1sTSLxG8QV/uNuK19bMhv+5FOxclICN8yegaB6PifKcr/G9l1fOxDs77WI1041R685Erbv7hJSuAduACo8FH3ny/mO/x/mvvcHCmP3sR975s6r92X9p9nG17p8B3l8DJ/47/dufyqpU/kgBadasIx+YzBqfnhFnQGNQcXyr/GYcKzWivCQD+3en490ds+Q4sMuAw8UWsBJzlc8mAbPGkFXoay3+dDQHSKmkPriKM/R3PwvVTKz2TFE/fGdbJtaIst8FWs3trG3615e5JmOFYwJ+vY73qWtYx44fuqv2ris1Kh+xBPIyRShfaWaYUOm14oTbioN7LPhghxHvbDXIweeH9likKsspyoh6LUKfIzjXtZa0omrd2SndnQG6UmN0SPVub97iAe/e0FeMcnfuTZVl2R+e9tuFz8pJ1lUHxF+Lt0tPxgCDzfRDqxRmcqWVpVkniVAmNEi1djNYNKLJpwLUTcxKky28SUpS8TvymjBEyHGnxZyB2pAq4qBn2/F6FB2tf/tGr0jEosKsMnOo2IItj2m+1nZg260b45yfUbIEZHS8s52aJ8wkZDJZbO5upX/9BlR7M6WSdqWXzIo2dkWrNoYwLkyo8prlkAKwUvyV4Nv2eQXGdJUoxTpmCfPoDMj6/wwUqu+oxJVTHmvzIc/cCTq+DfjHUCh90Imy3KJ6vxW1UsG6fwd7TyZ9/DMDu0+U60PpYqiEC1qFpEWSPaMdGk2yUeOjKzcCrUZ1CB9YA36dbdT2mf5uH3Xt5NtTZKs6kIMfLZ2K1bnjweIPlBagv1XoYkKvYwCs88H3FfWOQE42CwOoDJAy0Fj6TDJOisATdyGxBs68Hh7Kqq8vVYCqOMht/mAdRFsf2/GWCaxdszA6fl8H39ZztPNH09JmUdgTXhtOiXpdBg67c156v/jRqwY8MLe/gUMeZ1pNme1jlVba34M9/nvxBWhgjQFF26TLhr72TKGXHSy2Yc+3SRFTmiSqCghBl1XoWTdzihyFrY/UqCB7JQH5LlYkScFSV5qIDrFA6ts7zaJzQstZJVHFSpCQoKwDNPVEjKjzkp/cZgV3BaaReI3BQ7pCWAKriuDvNv3jgNsx8LQ32oNxV8+PlOV+rqJs7i8bY26lHlgTNw60l0Z/MbVdsSoInhQ6YnKMFe/tscP9TJrUQCzIVcJBLAdW4KTwDw9SDNVzFjgQSqE8JiHfSZZDAnY+kYw/bLOiKpgtwUHl2iA4xwpAs4/VrobZow0++p6jA9AVHpvms05HjTsDRz3Zx8pL5v1bVxg34F87Upb7eF2Z5Z/0KcWBJt4G8THQ/RjoANCSoaosyvp9GTjuMePnK2di2yJVfX6puDtoGesCUvQxk6kxGUuc07DMkYbVjgnYNv8B/HjpFBzcawX1ZBgLEutZGByxBM56u5hAd1Sdx6ikP7vI6ouE1dz+nAwsEqTr3bNoPZP7vI0JeAMejLu6AVXxO+dkbK3U+mCIP8YBM7bGAA0Z3ZjRnzOrsIkZdQEbyotteHVNOrxUVnx8CjbOT0WRKxlFziSsdyVjw7wUbH0sGaXPpuG1VTNwYJcJdf6sVtaGspyVpRp7fc/MXDPqS02S0UdNDCXx2dF/3B5MI/GcPmzqcpCOd8Jj//QD97ypXWHbRfHasY0Lhp4oy94rKbJ+atqq6DsHh877jL2BEluTNt4+l0Z/UBZASQYQqKjroo46v5IVaApm4HSIGYBGVPstOOIx4cPd6Xhvx0y8u+0RvL+dgDwLR0syUemnr5lUQi09PaiSfOhGaCtLp4JxsTG+yMyxoMGntDAIzsz2Y/2/SIDwuc5JtwYrp1R5SNfMHvip3edbSQ65s6bWBCx/bPBloY5+tZASwmn2M4nl0ph88fuM9/OFjQGlpqhoqpw36pBzMb+g9SCVsN3/7eZVG8U1lgC583gwo9FnQR21MUoMoigXLQua9DyKJ50ozfpnuWfuM+fDtwH/PoOFx/1zXmM5LObWcwVntpROp7mwgdu5g+P/x9sxPgYG7hgwo6FUSX0q65kWdLRcHAZUeY045Mk5/N5exxcGPAD35AYOeHNdlWXGv53xGdDMlTJEGlEsBinik3zgTvJ43w3YvpPAoAnV7aznaAF0rScDJ70GlLsd61mEpCf4NuA/8+Fe1y0nyuz7ma3VxM4IUUZQyXUO2EHVbhsZv4c4OMbHwIWPgXqmdIvfueNjNIKEtZ5MHPFknf7AnZcw4IG3pzeAxYsvP+LLW1wVtH/WEFRat/Eg4YUP6DgYxNvuYhkDDX6DJKXECkAzOHjQ6wju9zwxoqf4dlF87iPvgv990m8/VR/MEK5j7KWaxif9xTLp4/cxcMYyU7olKUXzOdNqbj3apWCfi3lxIe+RIcJD6XzQcqdovxHHPLY/Hih2zLwoQLc3N0EZ0hOlji31gSwBaNKK4hNp4EykeF/F+yrcY4AZg7VkTUQhIaW2xCKgfKqU6eTkXluFWnfAPecXv3fPu7Y32HbRfPaj0vn/p6Ist1YpdsUBOtwDPn6+OIgOnDFgQr2Xlmt0AJoWc7XbLBY0/c61HjNOuu1/PeDOyb5oALe3N/JGsf1/nSxz7FS1/pjKGp9Q8TaIj4FLawwwKcUsYvy1ktJNl0b/iyJVix60WQSZ6jyzRV/6UKnjzQ/czht7i2sX1ec/cuclVJTNaby0BmUchOL9HR8DHAME50Y/k1LaMzb6P2NQ14tWwcl0HPNm/+0D9/yLT7Wut6vHm6HHhh0pdZbUSSprfNDGgSs+Bi6pMeC3oN5rEtcGwbHWzefRAOgMEfWvdVtQ5TbgkGfOu+8XO8f1Fs8uys9/uNc14YTPXtcQsKCp1CpVjFnNmGXXL6nBGnfxxPv7khkDSuKh3scSVNRZVsVg6WpQ7ob+FUWq8GYIi6Ox2MrqKn8rL819/KIE2wu5KfqiD/lyd9T4s9DiYyWMWa0ljeIp4HGLMr5IX4xjwIBGvwE1pdGwls8Gf9LryCCpc5txxJPzu4O75429ECy7aL9z0DfvoZP+rPrGwEw0+6gDS/WutpI38Ul6MU7S+D1dmuOagUET6oTS1v8Bwa540nVuC+rcs3HMa/7P/Z68nIsWaC/0xk4V2//XsbKcXTXBDDT5rDjtt6IpkNGqh3tpDuQ4gMX7/WIbA9TcIWvDDLI2ugLLaLzWUEwetBHlnqxf7vc4//VCceyi/t7BUtf9J/xzKlU9NvKi2ZlxEaU4SF1sIHUp3o+uWGlCo4BztIKBXS8KDE6e8M798/sel/GiBtm+3BzVoo76XCuqg5mfNYTSUR+wQoF1OAZ0bxNhuv+8SKReMsGccLR9/BzxRbYNoOuEtREdAf721jkrhDNrUFVNMeCwd+6PPvS5ru4Lhl3036Xm6nGfrZwVFYQjSeHxPoKh1F0TUaZM0Z5mFQpVzcUowUjqUauSQroIOitOaAffk/cNYMYjwbk2aJGDWzUm2fT1+uLfj7fhpTAG6HdWSnVtIvztAbM/nouuh8eIEz4TTpTaUOW2S3DwqMfa+IHHmXbRA2xfb3Dx4sWXHy5zPVldlvU3pc/R9wxDZfEq35cCVcqc8shAUyBdgTHlTkNWNITsctTLcwtOBy1o1KRQm6SCBUE+QysyEHfBXArAEr/Hvi+gp4Nt1bmZzq2r1fUHKLf/jWoPg5IGnCq1kE4nnOtTHht5zzvIJusrfl0S399fumDMCX/Or2nZsi5bXycIKySzZD3dJSqtnNawEU30bwdVRx3YZcSbmzLw6qqZeKnwYbxUMA2vrZqO326Yjf27zDjhm4PaULaUEmrxz0RzYKbUg6sjgPfRwo9/v+99HG/DGG9DvxG13kzUuHnoWYPRoNhlosqbiWq3HQ3uDFR7ZuKQd86JA575X70kwDVcN3nIn2usKMv5VBXL7NvgqwsaUbvPgMYgreXZaGRV5KANB4uz8IvVM+F9Khmb5k/AaudEFDqTkO9MxnJnIlY4JmK1cwI2zE9AydOT8OqqGThUbEW9ZD1minskXmigb30TB9aLt/3EbahVSqrz0mrWLWeqxbEgrJL0bG/hRv55phJEKrGjroTVUr75z488jiUIpQ8KF3ZdEuc5vCd71GFfXmkN5Uj7aKHS58zMRKliHLLgWGkWXl09E1sfJQhPQIEjEcudqch3TsYy51QsdfGYgmWuych3TZJjuSMZKx0TsGNRMn6xJgPHSudIEFNxtS/eSdbXto9//xIeG35qbRjR4FMaz7rlrINzDdOqRaSoa2ZFJMCaAUFmKlZ6jTjpteCgZ+7v9u+ac/MlAarhvslyd96Dp8pyqhjQ0yuu0J/MTu9+4hOIO/qGT/tNOC2JL9ko32ND2XNpWOlMQL6AchqWu9JQ4ExFoUM/UlDoSEGhk0cqCpxpWO6chGUC4JOx0pkM//OTcWg3r4PXw9/UfeV6ejpfO9d1xt+Lt8/FPwbqfQbUejM6WM+U9iQ4K4DuP3Am4PM3qbdxqjQdh3w5n77vmR+n1V0ocIdC6YOOlM19ocqf9fdmAUCTWK3N/nbl5juAIJkX6Wj029DotyumRsCIJhYD8Fvw3g4Ldj9B8E1EvisFy10E344HAVkBcwoKnDza3ud3ltGidqZhZe547HkiAe/v1AF5BhrpL/fT4ucCoQP2xT8J40Ab7+POY0CMKL9J8zsrnY1IWMTnPiddKJ0OArTHhAqvAQe8jlLu1C8Un+Lf+5d/+RcGDI/4XL+kcFJTcJa4KcQi7gDM+gTRqHF+m2Qi6lS5hqANB3ZbsHfRQ1jpmIjlzjQB6M4A3B6Mz35OsE4SV8hyxySxsFflPoTdixLwwU6T+KNZtqvZR8A2aSwP/brij50ncPz/i3RMtAvqM5WbQcFaTQjp3GAaCUvahCr6udsdNZqL44h3zon9xa774yAbhhb4yJM37WRZTtPp4Ew0BWaBqnd0dZw9yQ1iNUuauLA0ZuN00Iij7mx4nk7Bqtzx4sagu0KBc0cL+WxQbrOe+XkGEAscqShwTEaBc7K4P2iNFz89CUfcNjQHDGjRuNJkjpx9fRfppOxysYzf66Xa/8J3pt9ZGBsqONj/4EyFPA2caUVTwpR1Bz0GnPDa/rvcm/cEi1eHAZ7ip6BOx6FS55oqv+UfZGF0D9BMQFH+5tP+DDQE0lEdsOOnBdNRmDtB3BXLnZPBQ4Fx7wC6wJmsAfQkFDgmiV96Kf3XriT8tHAGagM2cbEo3nUcoC9VgLq079uEeq22oB4U5KNIiva79kY7gJZgpAknvTaUex0vl///7X1peFvndWYymWammU473Z6Z9EmbNJkmM512Ou206dSttXARR4ttWVzwgFgJkrgAKTp27GScOF4kkaYkS7K1WLYkisS9FyAIytncLH6cNLbbeJclbuBOghsAUpTtZOI4jiLpzLznwxVIirRJkRAvqe/H91wCvLjLufe+37nnvOc9DRX/SSLrElqgrd7/6YFG36vJsI3GmwC+s3toAG+RELTSWLOD3jhup8Pb1zB1rtq3kWrg/SrwoEVi8P295rQHDZbHLv8GDnEYCcQaXy7t9OdysvHQ9mw6fdxJyWbIpaY6RcxxjDf2Azz7dZM2Wbl2Efd7MY2HrVwpCNnOmZS65dB45vgze85GHNpG/XpJ/EygMnsJoUluyrBAd6OvaKjR8+ZEBF50WtB/ksuyxWeh3WGn8YiNhiMl9PUdW6hWWUfVnPATni8DtLJAgPZvoJ0VInZd68shDHjUNX7EpXOpxptLp3bcSiMRNycLESeXoLNyQUdeu/lfOwHQqBQEY0M0fUVfQZRVozsKxvX2oBHKwCQR0500rEE5z0IxzXmhL1i+4/Qx768ZmCKXS2gBDnWElP2JsO0SOM0oEsHN8Wa4kADS0+K+ETt1nLTT0TvWcyhivp7yQtfb7ctioN7p20JH7lhP0RMIszhkNxj59nADTdDQb7dxX0FRSp2JhN/CtonjiKuFNKi7aVhDYUwhdTWUPPOaDG0sISLPsqn2gPczg43+Vyab7CxeBAodeMjGAHCDvZGMOOlH+7bSPuXmBYczFgLSu5E49IF+t5n39cK+rZRoAsVPetDSC52/F7pybYX73HZFBGk5OnLPnoBEGTmqFQtpTC2kXs0z1lqnyNDGLJi65F+1a1XbxkKeSfCh4Tkb5dZQm8ONfp6Tg06K3L+RdntRvp2OJS8EfOe3LkIdiENvpN3Kejp1/wYaDbsJ4jAr96G7EYBFnuPi78+U56yj2avQ10BYY3bAvL7fD+t29p7H1Xx40L+MBn33Qs54ycFIbvBqC/Qdqvo3vUFf9Wi49MK5MAAaIQUHAbAxm78VzqdBzU7H7kFSL5d2KwthaywMzJE8FJQ9sa/j9+TQgI7Gt7KScPEAIEHUvDYEONspoQOYEe8V8eblSQZeDf4IawzpboqpDupWS799pr7q969GEvlNxixw5uT2P+gLKc9w5jhiY/EjVAsitPB2eBt11RXRgSp4tnm0W4GXuzDgne/6KHoRHOkc2uXbSI9uz6LOOhtBmtS8D5cEPnltFnkPIObMwvtpcIbGhlkAmpOSqo06NW/nGalUlzEcft8Nd+ll6wZD7hjLiHLxipNB8c2mAmo5bqV9ldDQ2Ey1GQVow4POpZ2+TbSvMotajkHkf5EPwJIl2RCTLxRCUegFd6XIx+CLi0TreLiIJlLrnUPyFQOUwWZoYtvpfMTKA/H9CS7GsaaaHxgTEUI62L6dkqssvAPZ22QEVaqQDbCxljjK+mELhNgmm4s5pDXeDPaQgydnVJWyrZpgJ1BDjftBXAPYSkwShv2M/5txOfUYRcw5ERTcZkMAH8AsxtXebKZDHkM6JgZULFooprtY5zmp5VO/6ni7XfM5iD704fcFEvnPzFgAlUDRkG/7SKPrHcSfz7EIv5XONVvo9JPFdMCP0MZmejiDIQ4R3oA8aR7rdOyrWEtvPFF0ReR/+T21NEALUIB+Nb4ronNhALeFACyjERfFQm7qbHDQG08W00uHCujHj22jrY2auQAAIABJREFUHz96O710MJ9OH7VQ9CSI/g6KNzlpotnO2tiiGw10uwH4dmavGDmB5T/3pQE7Aa4AZgHQkMBFEnqkyU09AQedfbKIXj6UTz8+mM+a4i3HiqlPdXEuAoANe4sGyLA3jgnfGTriU8FvaY43c3YXk3AyCOqcObpxA/wFQBdRQi2kYc1JEOAfUosvdmrlB15qvuvXM4M+cqvzsgDETnpDnicSYful82HhDU42W+jsMSs9VoHKP6OsO1MhjlyqYf3oDSLEUbmOzj5pMV2SUHh/AFJ4dkV0LpJPieZ8Ggpb6MwxC32vdiup926iw3fk0L6K9bTXv572+jDW8nJfZQ49VpVD9V/Koad3bqLXjxTSoOak8Qji7bYUowbbFuX2mQOJ6w9i6L7zZsjBnjPOd0B30YuHCin8wBY6elcuHajMor3+dayQuLcih/Ztz6Ojd+fRqQc30yuHC2lEd9Ikv5Xk07lIgejgcyUEtlKSyak3pBAoa8XMcc60Zzzf7cN7RswZ1LoJtYABulOvfLa9vuIP5wUicqXMWqAzVPnJgcbyZ+OIQcPLiVioo85GR6pS4kbsSWcKoEVykCsNfXl0uGo9RevgoZrFM8LrtZNQOIMWX0iqjkfsNBIpodeP2ejU/bl0uPIfaI93HdV4N9AuBWp9sw2UyKPQJ4f2eNfSAf9aavg/efTiY/k0EkKnGZS547xXn4ofqJzQWRkLO+nVwwWk35tDB3xZVOvdQNVKHlWzzTZRtW8zj12+zVSj5NFu71p61HcT6V/ZQK8cddBIk1OEfzhcAjvh2hihjus/8cx/Ek17znGW7BSMjfkCaKbXG9MK2Yse1qBUZ6U+raynTa38u8yijtz6gizQrlfc1Nvo7U40wVspoj7NRU98MZeqFYxMJgkFQCOpiGrFJ+5cR/0BtNMyC1AJEGDwDIMf7qLBUDl9f08BHazKpT1KtmC5AGhYpwQgDEGo9IBO9u7UqFXS2thIwB7wr6GnHtxIXQE3JdHPEfzvKYpm8wcB8wIUYsiDQTt9r2YzHapYQ7VehLQQOkvJBqAqFW9qqcG64ly5ijc4OAnZdGB7Dn239nbqD5cT+l0KOdqVAtB2MsIaBlsD1YGZBt55b1+1Ejp0D2oO6tLK32oN+l0y7rwg+Mz8yrgg3aEK20jI/SZe4YfCbtLuu4WqlWzaxWXZGfKgU/ociEGD0qd/dSONhZx0vglJN3OAjmh4gLi4lWJhD/1jzW20z7eWdnoNXWzE6o0hytiNcnZjKbRLUo0NuNQdBTo5tMu/hT3F0L1Z1NXgoPFmaHGvBK9wntcmYmPa5Dd3bKH9vvX0sO8WqvZvZtBFl52HlTzCpJVu9oAJW2iGQ2+8xi/ap9Uo2bTHl0Xf2HkbDQRLaCKCmD2OwewhDhuNB1EqLbxmADTYGuYBaBuXco+pRTSouX7ZEazcBRpu5hFH7mHBFmB+dEj5WiJkfzcZcdP3d2+lWmUt7fTD05n+EAktjaXgR8M7h/e5mWp9WfTd2q00HnGnONnzBIGMAjmAwMYTxnizg360P5/2ofeiAiDJoWoGEAOc51piXUxAaYBGBSUaGwCs8PaAsEfzQ7fRcNhDbzIjxCwhnoVcAxyzlfAWBuBEaGMwVELf2LWVwbWWzx9hDNhCTFBTJy6DmmnY6gpHXhHVptV+0Y3n6Zrb2IEA28VcIY6p1yxdhALK2vRx/bU14E2LScEl9DXQ+FVDUtBOCdVCQ5rzcpfmC/U0en9vwcAhf3D9LNAW8v92f8h7LBl2XgLd7UDleqpB+6or7ayMtlZL5VEjSQiPaTMdqFhPbxxDCyzxcJvDgwYI2IQudsBOJ764nuPIC1XzM8BntiWDvZJH+yqy6bWjog+dOc59IeAs2qrBqxVNgYuZMoemwnv90FtZ7P2C+wSa4ptpvz+LfrR/K8UjLqYmms9WApyTqSKUeYcaMiwnCu+dWRq6m2l1CXUbL4d0F3Vqyj+3qJWfvX5II/d0zRboavB9KtZY8ixe59E7cK+Ccu/pIA2PevEPnfAskVSr9eZS6Kt5FAvDe7YwW8IMDx6r/kUsNNHsopcPW9h7rvajD+NSvD2gPZgodReJsVz69q5bKd7kNk14ZyHXAOB8HnRBMFGai6n1uIUevwMT2uLvFTR7EN18kEzcyLmKjpOYOA263cImk4Wc18LWRcgFRSjwWEURilkAelQrSsW93ZRUbTSuFnDz1w7dH31Ddke5Zrxclh/2BCv+JhZWWl4+IrzoWj9iqwKk+YHjhM7iHzzR1zCHDlasoZcPFzGnGJxX81QSosiiiCstf7ivgPb4smkXAHqJ4vLcZYa1srfQTmUDNd2/icYinhUJ0CKsAYC20GiTk5OfmIDSDR6u3YvGduAoIPyxw38rF099a+dmGm2CF20OcB6HRC5XCKbBGV6reQAaYQ3ImCKsgSSlg7q1smR7g7JtWUBG7nRxFujV/Zs7gxVD4QfxQKxnbw+v4yLbbgj3X/tDJzzwHNqj3Eyn7s+j4aCLJlM8V3MlfwDSTnr+QD7t8a3lBgMI+yzFG4ThQYMBUu3NYVATr+7mAJ2FgB9CQUnmiduo5ZiNHtuOBDPekhZ7j4jfQ7QLMX+O2yub6HBVlmg6bJbKy6vAWWg5mwWgEYPGMCRNe3TvT1tUf9Vzz0kRpMUh5TL9Gl3Bu8OVntePu84dvXsDIZPOynbsPYvE4dUgBa96jsGvusLrNh7aWu86OnbXemqr99A5NLZt2kbjEcQxzcNk4OYBETu1nCimg5VrBDBzyy4RFxU2mHrOswFSOkmYthlAXlAY4WWCpfDc/m0mqqJc2CTB1y0ikoTfqb6VQxtICKJZcPqcZ7PNB38n8hSbqMYPJgjYH6DpZXM7NlFtaMTul4nVES6eFtYAEMYZENGN5Hp70aJsXOwXHcFRtYhwi4MZJCN6IfXptl90BZWHTx/zfmyZ4EXudiksAGZHX6P3zucP2X66v0owOXbDK2J6XKoRbKoSMJ19B681zW2tVSAluolqvXiokMVHUhAPZQ4d3r6WY7tjzXithzZDocnoU6IEG5WEw00O+vqDeVTrzWJ63C4/wh3ZqQ7nSJ5eTRkzkqtTbYNkl2AxCCYD86eVXKq7J4d6AzY6HzFKmhcGkAvxdjOx7jkkU5sc1Kc56cTd2bSLrzX6Vy4eoAHwsGGazpjHyeu6L2+gfs1NkxEIbIlmDyiZFxS8TNkPBUViQkBYY5x7CIKpYY7ybQbigIuG0Z1FK+Su4MPM2gDdz0p9QevFDk05cvqY97eWAiPkNpbZAolj3o91hrbf/+wB+zsH79jI8b/dnFGH0h3kSHOmDHjZ8HKyGISqGbwBSKIQZZcfpeObuMADVYPPH7TRaKSMkpzsQXEKqEpI/JjFgwZAOzjxBVpXe72TTt6TQ7VedCgXbwMIU4Ai+LAfydSsWRkvwkYoasGAvTC55VKNH/bMFhPVESslm1FRaB4O+IKAnHnJTnrjWBE9VnFzqjIQAJ25QqeDleuo5TiShQBl3D8O5pEDQBd07AtcH3rlmJAEOMM7BRheb0959v0Z3nssCJ0NByUCLooHXDSquWlA91xu15VIp+79+DLDitz9UlqgL1j1m12hqv0vHi6+cPzuXNrrXUd7EIflV810uIMTiegzyJ4lJETRLSWPdlRg5NIuXx7tUXLo5N1Z9MqRQhqNeFiPQjxMFqa0JZucJuK3IvEDgMYDb6VEcwm1nnCQfm8u7UXxhAJwFt6dSB6maYiG98xLntAAysLTNqrmHlay6Ik71tBLBwuYvYHQDlcTLhAwMglG8982lOcc9MKBbfSI9x+ulLwLr/eDwxjXEgZ5xLeGfvxYAU1EnCnmj1AEzDRAo9ozEQQwW1JsDXN4zwhr8DFphTQQctBA0Mla08kAKgU9l9vUim+dbfB9aimxQW7LJBZAq/X+kFdrrXNePPXAJtpfkUUPe7OpWoF3LLjMTBfjkmehPVGjbCQUKPBrvZJFj27Ppqceuo06TjpoPFJE55ryWeUM4MeylClJT/N40HhtNjqNQwYVkpgu6g646Ns1W+lI5c1cCQg9iZ3+rVTj2yLU/3jySlMTa/ybCIUWHJOF9+zNYj5v430b6ewJJyWaXFzYgQcfkqbzB8XMeooLOw4LxZsd9L2Hb2NtElGQkhlgNsAceh0oqBpvcqUKfGA/MZku7Njf345GSAPbhF5NQrfSmGaAM0BRFKNc/3jz1V40ABrePPoJxhDmCG2lQd1CUbX0R60n/Z8zCZzIw8iEBaBw1R9SmgZC5RdfftxGzffn0eNVN9M+/1p+Zd+lbKKdyiba5c2jGm82P6j7lDXMhz31QB69erSYhkMo1QXoAaDBeRYPVTIilqhAw3dL+YAtbltC7AYUKqFjbOVS47FICbUdL6bv1txCdXfn0AH/eg5hVJeLLuXoVF5dlks15XjTgOecQ/v9a+jJO26mrz+QS68cttBwsIQBHxOUEErCvlYmQI9HLDTabKev77iFdnuNKktRzm0A6lIva73r6Zs7b6VE2E1vhgpToSgoAk6t6luaewkgzZ23NQuNBiw0FhA8ZxFSMI/Y/ohmucJ3xiQyqBdRm+p5vl31//dMYILcpsksAPW74ZD7qYmw7dJI2EltJ+2s5fudmluo8YHbSL3vFgp8JY/CX8ujp6u30AuPFVJbvUtwViFi3yTE2M9BJY55rKJaT7zaW0WhSgYesMWCtDg+gDSSmUX0JhfU2LnJbZ/moDeOFtAPHsmnp3Zuo+B9W0j7ymbS7t1Eofu20FM7bmOBpZePFFNXvZ3GUA4dScuM8hsEe34itrm4Y10aQFroMQiAdtKph0DL3EDVfpEENWL1Sw3O2F6tksX7S0ZEiTzurWRkKQBalK0bNjC85ji8ZuYSg0+cBmhBX7vam820Rw1O8xgPxMCLaESHdKjw5vH9sGqnbs3zWmu9969MBiPycDJpAYD0SKj0W2OR0svxUy6aaBYeS7yphOIhB8VDxZQIwSOGMD3GbPQnfDfb98sDMMbDeG1LJKpsfK4odU6g3xx4sSExmDaIROhVtlh6T+/ajn/xNkfICh70qQdvYcU6oVOSYQ9aWU9P7biVkk1LDdBIOIqBtnAc0kgJHZmlLdUINJxVxJhRum2jkWA+CbaGi/nOMb2YuoPelo7A9r/PJBbIbZvUAl1q5Wf7w/7vjTfaLk9GCjm5dT5caJoy7eUCKmO/aNvF9C/O+C8eAI3tmnU5jgrCiJ2+tQshjpTSH1T+lqDUey7vGzz6p6tvo2STm2PQXGYeme79LsZeyZCF4noRsedsOoBGYrKIhnQnDeolFNNFdWBchSBSMXVqJR0dasV6k8KHPKzrYYFu3f+5gVDZd5ONtsvnwWHmIXrMZTyTviKZDqsZqMFycdCze5AkBM1u4xUFv7kAdrHf71XW0j89cjszgaDhgjeyxbFgEGKyM1VPaDgjEYghEoHmauxqpbgKfQ0nQfAI3jN/Vp3UqZedbVG9EpyvBwiafR+dDcqfxEKlT4832i8lIi5TVQEuxnuSv13YZMJJtCYHvXQon/YrN3EDA4B0Jml2aHjw6hHBf0ZyGQlWg3WzsOsHho4A5/GQnRKaPVUJKIDZAOjlijXPFssGUyMZsFEy4KAE4uHaNmZt9Gslr7fXV9xkdtyQx3cdLdBW7//0QNh3KtHoviQ954UB28KAxLzbFpWESBoXc+FNNVcSQu86M4UqKH56/M5s6mwQPQsB0KAocmHRgllAAHkrjSNnoEGzAgAtSqPhNRsi+2ai0wG00fB1TCvmhq8Dup3aVOWFtoD/f17HR1/uaqVYoC9Y9YmhkKc+GbK/NxEW3F50qIZGA8pvVwsQyfOYa5JAktRGw2EXhe7bSNWgW7IHvXg9aJR5C288xQxB+MSbQ+H7N9FoGNWXaJOWSkpzyflcxzg1KWskqe2UDNsozqXRYGcIgAZDAsk3eM3sOS9js1fhwcNLLmK2hpAyddCw7qAR3U4DmutyW0Pp98/UK3+6UvBCHucyWKBLrfzdvqD30aHGsneT4DMzXc4umn3KmPGqnqTAY0+AQsnKfwVc0g4J1aXxoFHstJGq/VmsA1Pr20J7lfX0z1xFeK2TP8rDHTQectAoJ9iuP01uttDF7N9BdAkDRSiiQAbdwREfH9DLLkb1im+ebVD+ZBkeebnLlWYBiLD0NpZVx0NF77wdKqbzIQclmosyUjwgvdm5PMVl+p67wlupV3XQibuhx4IyeOhxLK6iEBICaNBb7d9AO/23MDOk/p5s6lFBXbwWqmYqEaiDqibU3mYHRnOAdkx3cKsqaDgLz95CI8EC6gvZfhUN+kJn6io/udJwQh7vMlog2lzxG72N3i/FQt5z42EHnQ/np4SQlgk4pPeece/d6KgyCcnRZjv98JFb6RHfWkK5/+IBOpvA2ED5OAAafSGf3781JbL1AfcUKlWRQAxDgU6ENcDQEI1cRbGJmcEZxyb4zRZKqog3i47gfUHHu9Gg72B74xf+4zI+6nLXK9UC0eaHPtoeqnQMNHqHxsNoJPoBD5L8/4q2EQB6EuXwuI4RKw1qNtLvRaHKUsiNCsXAGsjWKjnU+NVsGtRRiTqP8MaUhCHkQdGOSoQHDIaGADwzgzTCGgm1gCbUQhrVnNSte9/q0r0PQsRspeKDPG4TWICaCz/Srldt7g15WxPzeZgkSK9YkEaRCJgQiQiAU+gznznuoMN3ogvPzA40Mz+/fwgEYlvozgIVwGNfzKbWE8W8n/nqlkBDIxm0cEVg/EqJNoAawvrLIaq/sNDJMEIb8KQ1O8A53qZXKbEG9781wSMuD2GlW4DoQx/uaCj/m4HG0meHwmUXEfKYDMHbQpLGyXKeULJDqTD0HFBowCXiEqxXGFgLhoTohgMdbYC1i148bKVDVdDBzmVuNIC2OqUXng59QIoVdDz0MNzAsWYswaFG/BlLptXdkUWvHhWTgJAJgMcuJgYwObjcnh0BeNaIM9soGUKptoXizIAQus0AOzGmdh9ZGGhmwuMe0hBrBhgj9FLIScFhNKDVCvmNIRr0t5wN+Dc/95BsU7XScdF0xw8d2t7GipOJsOe9t1AS3oTycFDwEBtM6R5E0P9PqNrJkMjqCAmNRZz04pFCeuKOtRyegPSqaNyAruYCmEXTA4QxMAwqHRoa5LGGONqtPXFXDr30uJ2gIghQFnx7ALS4d8T9IopNmJ0RtE9pQwXAM49m81zgDvU5iB4NazYa0uw0DKDWiigWdF3qCnp/cEbb/teme7DlAa0eCzANL+R7aLjRNZmIWGgicjtNNhXQ+bCVzofgUdsoCS8a/5Me9CqxQSHhWp89ZqHQV3JZB7uWQx6iFBz0OTFSGuKp1lZQqtutrKNHfOtJv28LnT2B7jslYlJnUDbetIQHLTxqO40HbZREnJnF6wUwC96w+QE6rhZSUs1nxTzhTbtpQHW9263761q17X+8epBAnolpLYA+h+2NlUWxxrIOKL6BJoVwx/kQumLYroQ6JECvDg96Mmyh82GEr1zUHyyjH+0voIYvraN9/nXc8AEd0tGjEt12UNiyEw15FehrryHty+voX/bfTjHdReNQTOQmD9ARByjP0N3AvTODnZEu0RYJwbk8V7N8H9OdHGee0PIpoVqoR/dORIOVXznbcOd/MO0DLQ9s9VkAceke1ff5vpD/maGI72IiUsIi/XiYRUxxdYCTnGRwHUVBiKgmBSfeTb2ag146YqV/rLmVGr+6gU7ek8286ZNfziP9vs30dM3t9OpRGw3qqBK00ZtNBTQZyU81eSjm2LJhW/QFRPspNEQ1PGUBzOkqwCvVgCbpGzjXhABluqEg1Ohc1KeWtrdp/sJoc+FHVx8CyDNaERboavB9qifkPzYULvvZRARC+AWsJJZueWW8vhoxRwncBjCtlGUyYqcEF5OkurYzF9nFfQSRDI6HHRTTUK7spAHdTfFgKsGHJF8E1xuTtui+g/sC7a0gJTAeAiujkOI6RPSN9lMAaXjLgp1h6GgYSyQG5wLH6/k9JwFTnU/AzEDMGVS6pFZAQ5rjQrvm/+aZk1V/AUdmRTzI8iBXrwW6T3r+fTSo+IbCZYOiaapI+uA1dvpAJxYAtgTplWQDJIKhxyISe8b1E3xpcX2N64nvkORLX3d+m+LfYh1R/QcWkCg0sdCoivZOZo8tOwgVgBDYF5MAJpRC5jXjM7xlMDeG1SLqU+2TUbWsBv0/V+8TL89sxVkAfOmoXnVzf6j8u8lQ8YVzTdD4LaQJbonlIXQpScpy8RtyckKIA2M8aKekjgpAK42hJyCao64AZgaDM3OtDYC2Uky3c1NXkRTcBtH9y52qt7W1XilAjmbFPcDygG8MC3Tq3o/3a6XVI43OyXhEaPuKZBCod8LDWkneozxWwzteyBLX2QhzTOExc4HJ1Diz6At4PUMT17YvO41webYB0KLgBKENxMyHVce7PZq3CU1dZUjjxsC5FX2W8CC6dF9+b6Pv1eFG+8XxFBXvXMgttH7BnZZhjtXrTYftrMvMYQwuMDFizEZpdno5qpojpjx/4AZIA5hROGOlPr18sCNYeWe0rvR3VvRDKw/+xrNAe8D7maha/lhfyPPWGGQhDZ0HaCtM0VeQXupCvFNzrssTLkSNuOpvdg6zKMtG8i89kAycPzguF5hPjZPbaES1U0xz/6I3qHyjI+D7++bmwo/ceE+3PONVYYGXmu/69Xa9sqg76H1tIGi9GA/m03gQsWnRQVvEJ0XiaRwdMTjjDwB3iCE9bfN62uhwDlYGl2MXp9gYRVeocogvYwjqnGBmoNPJ1GGeDtsIW2ACEJV/QljfypzmIUiagmWiWWhQdVKf5h7o0kvvidbdJb3mVYFS8iQ+BG+6NeDZ1686zo3oNkoELTQRLKJzIchIipglA3SkSPCow06h8yEB2hQADRAWb0BpUE6E7DQWtK8Asfz5ed4oyxaC+qLrCUAZzA0ANMB7UHW+062VN7eovs9Lr1mC2qqzAGLTLfW+LVGt4gcx3XUhGbidkmoBP+AJXWT5UQzBNK1IPk1ECkwBTjIEk0r6pWLLXFSiQ3PC7PS4+QGzEWKBuBFAGsU1g7qbwTmhFuEt4HKvVtbeqleWyYrAVQdL8oRmWuC07v14u+r9ao9WGotpTlGkgIIFzUpJ3U4TXOiA0mJ402k2wPS/zRmLXdlgPpV9kbI7POcQtDHSAvmQ+8QwS9GIAbCLXqZCGdBtjqsWimku6tPKzneryuNtDd4/p4ce+lcz72X5WVpgVVoAr4itWuXfduqK3q+7fzIQLqbhoKgi46oxzUlx3cFqZgCICTStDTvoHLo+M2hLgF6yycBI2HLy1kEToZRgURDJPlyTqVV+Rkx5dQE0KgHhNY/qxXROy4fX/F6XVv5sq1ZxC/Ioq/IhlCclLfBBFkBrrbMN3sJ2XXmhRy/7JWJ9IP+j3Be925BgYo8NrelTYRDErA3tYEnXW/xEBRuipVQyiDcY4SkbXvJ0bYw0PY6vj0nKrhftOU85jwGt5GK3VtYWVcurZCuqD3p65f9vGAu0Bqs+0RHw3dWtlbcM6K6LcZTSahA8ByiAc2rhNkeiM7KNxiCCHoIOhJ2S8K7Zq8Yr+swBABN6IEYJcvqz4GMz2E/jZs/cxvt9ngsgxT6NfYnlXOvOtf251p++bZyX8KZFxR6YMVfbQfyPi4bCxZQI2SgRKqY4hm6lMY4pI64McfmUGH6KhcHC+DxhYtJMj6UExkxsCzFyTDSYZEQ4BpQ+kfAzGBsjqGYUnU4u92uukU61bG/rSf/nZMHJDQM98kTnawE8FC1q5Wc79ardA7pnaFQrvowuGiO6nWK6m4Y0J4GWBe9NZNftnGHHa2lCExrCKI6AZCVe042QCDcbDQt9iEluMGDlJgOT3IMPnWHSQ4CbAfjzWc4GogBMoUcyfWkA6czfAFBn29fM9cRndDqZOib58yzbwJsGwkLgoIfsrH+Bfn5jqyy5Nxe482STEl4a1dAWS4wh6GbwPVNAIyo6mHugn1Hfpip/d/qY99fme7/K9aQFbkgL4CGJqr7Pd6rK4wOaO9Gvey7joRKiOoKPiiSO6F4h2ARCjlJ4SxB6x0BIBICNV3cujEGMlWl9ALrZvcxri+vO3Ba2P93LTXvQM9fFZwG8sy9nW//q73hiuVLBV0zJIM5fDNFgNR07hkc5F6itpu9Rim3oM/NbQErONK4W8QTfp3t+ElXLT7U2KP/79DHvx27Ih02etLTAtVoATTVb9aqbo6q3fki1TYyqhRQL2ijGXjRCHmB+FKYEd4RnDe8agJTu+ozX21SpsW7l1/l40Mqv90kUWBijyUZJFpAHWM7m/c72HUB4Ns8X380GugDW2dafbZ/Y9tXrQ94zCTW4sIMSYTvFkcjDmKMDSTqGfCMCtCg+4euvFnHoBs1bh1X7z/o0z/dbA9vzX5Fdta/18ZS/kxYQFoB3E60vy+rSSht6tZJzA5qbhnQXZ9wB0MIjREIxDdIAamPM7hVC5EYM9sx1K41wLNbK4vHg+kJInotoUEgz6xBhlIkQmA+pyscrFZBXe7kGE+VKleSV34D7LaQ4p+5HeP828RaAtwEU+IAKptsIxT4I8xjnhtjw7GCctoNhDyyN363uJSYlFJ1YaVBzUU9QeadTr3i2Q1esaN0mny9pAWmBJbQAgLo1oGR36b7GHt07OaC7LwNgRMEEwNlOhrC7sRRaD+n4oxGHxO9QlDBzCKDDttJ6EVO1I/B3QrNTQnOIZQo4DfAEgIrQAjpRzxwi7MKhl6m/4+1hmzh+Y7+zAy5KpwUwA5zT52XE5qeCMP4W27vaLqsbmDEBiTLtmOamPrXkJx2q/3utepX1dKP395bwlpSbkhaQFphpATQI6NJ966Kqsr9L9/YO6iWXmK8LlTHNkQpxQBMC8WmEN+BFoWxXJBcFsKW9z5lgJeKVKSah77MuAAAIZElEQVSDwWiYtoQ2gzHmWg+hlZljrnXxvbE9LOdeb+axpsF67t9M37bYz9XbMZtXbbwhpJc4D4SucM5DukgQM8OHRf8xCRVTMsXaGAwWU2/QMx7VK4PRgP9WqTY38ymSn6UFMmwBJBPbGrb/eVQrf6BHLz0bCzoujOhFTM9DEjGuIrHoQgsifqBFW6J0GMT8IGU20LyexzP9DQGTKpgYCebFI8lnYQYPMzI0F42oTvaaY7rjUo/miXWo5Y+3aeVrZfIvww+h3Ly0wAdZACW4rSfK/rgrVLq9S/U806eXvcVaCrqVRvUiViQTD3g6UYZQhgRoM9vgaoBGgm9QL+HriXLshLqN31IgF9Cvu3/RpZe9Hg0qD7Sovr+UjVo/6KmR/5cWWAYLtIX8v322oXJTu67Ud4dcsYFg8a/A+01qRZQE60O1oAMGe9USoFcGQA+rNhrmCdV+5bohFj+kOS71a55Ej1r2jTZdKfn/bJ8/knoZy/DQyV1KCyzUAlDOa63z/Vm7XvGFHt37w/5g+duxoIebfzLVipuAmhmgbvRjE8L4nC+AqD8PJE6LKKbaft6jlr4e1fw7Whv8/yv6eMVvLPT+kOtLC0gLmMACqE5EgqglULEhGqw42K+VtsZU589RxGAUL4gCGGT9BW9W6AIbAJlOUiE5NTPhJr1ww05Tl7BZ+rORLJ2a0MT/Yf+p6xnfCRvjfyjLdrCqXExz/nJQdQ726GWBtgZvYeuJqk9Ib9kED5g8BGmBpbLAc8899K876yo/2d6gbOvRlOODmrN7QHX+Ygh0tSAAwcK0uyFdgLUAbgvzozmGrTpS3UAEmyABXQrmIqfpbuzxTeEnzwSgG+EzKI5jnKCFXUD1Q8IWiT0BuumJLmU3rhKFLVNVoSn64IDmuNCllcY69YpIu6aURuuVP0Xx0lLdD3I70gLSAia1AJJI0bqK/9yiKpYO3XeiVy+NxlTHOyOBVEsmFg0CRa+AxvRtNKIX0LBeyGMoWEQYw7rouCFAeSpIT/cgbwRQNs4RXnEyVclplFpDR2UYut9QKdRAfwRQI57solHNQcmUYFG/7qBu3X2hUy8bjmrKN1t1nx+dsiUTw6QPkTwsaYHrYQGAdVu9/9Ptqu/2HrXsUK/mfqNPL32rXy+7PKSVUDzgonjAQfEUeI8gfq27GHSuBmcA9Y0L0MJjTlEZUzxwYQ8nhypAeTSqHtGtBIA9qBf/vEt1dXTovsAZraIUoCzjytfjzpf7kBZYYRZAGOTMye1/0Frvy+rQKr/WqXu/06eVDsU0z3sjgRIaVd00xpV/eHVHOyTjtV160EYIY1gHLxmFI4WUVLfRuJpPSQZjG7Mw+nXPhR6tfLQ34Plhr+rZ3dbg3YoJMtr80EdX2O0iD1daQFpguSyABCOqFlsClf8tGlTs3Zr30U7N+wPERXt117uDaCZ6BaDhNRsgfWN70IIlI2wDNbl+veyXfbo3PqiW/Eu/5nkClLgWteovQYmUib7lurvlfqUFVpkFqLnwI1A/A2C36JVF7QFv9YDm/k6/6uzo10reHtBcvzLkLZFgFOwFxKlFl2hDHyIN5KI6Dl44jynMBmaYsPjTFOaIivXx2dj29OXsYkmiXRV4w1N/ZzBXph4n/58Tn+J4hK6HkCZFFSaG8JKtrKMs5F6N/0Pa00GDmvPigOb+v/0BV0+3WvJPHZr3SEuwynO6vvKvXlUrfxdvKKvstpCnIy0gLWBGC8DDbtXu+XdghpypU9a06T4lqpYd6tY8z/RqJZ39eslkn+p8b0CzXxoK2lMKdAJkAaZIjo1zvz94m0ia2blKDsk1DCPxNqIXE4YASWhQXD3E+gDQ6UOwTACuYpuIAQNIDbA1qIYAZ+wP3i/CE7xMvRHwpJBSz+OiEST4VDvFNPuFAc31do/q6enSyp+PBsqe6NC8d56p9+cgAYvJDL0nzXjt5DFJC0gL3IAWwCs7gOm1+oo/bNfvuOlMYHt+m+q7N6r563r0su8PArhV58igav/psGr71bBqucyypwBhppkVUVwr4BHjTjLQEbHRMORQ+f/wyPH39AHAhS7FzAEANhobiN+ImDmqKyEuJAAcgO1k4IfkKiYDgPiA5qJ+zQ2P+OeDqjM+oJV09+hlL3RqXq0nqDzcrir2sw2+dSizR7hCgvENeMPLU5YWWA0WAHj1Bat+87Tq/aM3TpT91/ZAxYYzDT5Hq+a9sy9YdqRPL4n0BJzf6decL/ar7t4+1RXvU53nBnTHT2Ka/b1hrfjiqGq5PArltoCNRtX0MKrspoE2ZEmxLi+LCZ4vPHS0DRvSXJdHNOeFYdX1s0HV/Wa/WpIc0MuH+rTSll7V8UxvwPVUX7D8ZLdadn+nWlLW2eDderah/H+cqav8ZLTurt+BSBURfXg1XBd5DtIC0gLSAu9rAYA3GAzg+56pr/r904Gqz7xe5/uzMyc9f82NChoVaxeHT8qrOlTPF9vrS+6JNnju7QyUfC0aKNnRHih5OKqW7u8Olh3sCnoPduneA52B8j3dmmtXZ4P7/q4G971R/CbgubtTLf1CT7C8ojvot7ep/o2t9d6/PXNS+Yu2xu3/BY17QW/DsUhv+H0vmfyntIC0gLTA/C2AeDjCK1cGfUh6uPM3n1xTWkBaQFpAWkBaQFpAWkBaQFpAWkBaQFpAWkBaQFpAWkBaQFpAWkBaQFpAWkBaQFpAWkBaQFpAWkBaQFpAWkBaQFpAWkBaQFpAWkBaQFpAWkBaQFpAWkBaQFpAWkBaQFpAWkBaQFpAWkBaQFpAWkBaQFpAWkBaQFpAWkBaQFpAWkBaQFpAWkBaQFpAWkBaQFpAWkBaQFpAWkBaQFpAWkBaQFpAWkBaQFogsxb4f4NU42FyQQ7zAAAAAElFTkSuQmCC;" vertex="1" parent="7">
                    <mxGeometry x="10" y="30" width="320" height="320" as="geometry"/>
                </mxCell>
            </root>
        </mxGraphModel>
    </diagram>
</mxfile>